<svg width="47" height="48" viewBox="0 0 47 48" fill="none" xmlns="http://www.w3.org/2000/svg">
<rect x="-0.000488281" width="47" height="48" rx="13" fill="#F6D060"/>
<path d="M20.9995 24L22.9995 26L27.4995 21.5M29.9007 16.9985C30.1066 17.4965 30.5019 17.8924 30.9996 18.0991L32.7447 18.822C33.2428 19.0283 33.6385 19.424 33.8448 19.9221C34.0511 20.4201 34.0511 20.9797 33.8448 21.4778L33.1224 23.2218C32.916 23.7201 32.9158 24.2803 33.1231 24.7783L33.8442 26.5218C33.9465 26.7685 33.9991 27.0329 33.9992 27.2999C33.9992 27.567 33.9466 27.8314 33.8444 28.0781C33.7422 28.3249 33.5924 28.549 33.4036 28.7378C33.2147 28.9266 32.9905 29.0764 32.7438 29.1785L30.9999 29.9009C30.5019 30.1068 30.106 30.5021 29.8993 30.9998L29.1765 32.745C28.9702 33.2431 28.5745 33.6388 28.0764 33.8451C27.5784 34.0514 27.0188 34.0514 26.5207 33.8451L24.7768 33.1227C24.2787 32.9169 23.7193 32.9173 23.2216 33.1239L21.4764 33.8458C20.9786 34.0516 20.4195 34.0514 19.9219 33.8453C19.4242 33.6391 19.0288 33.2439 18.8223 32.7464L18.0992 31.0006C17.8933 30.5026 17.4981 30.1067 17.0004 29.9L15.2552 29.1771C14.7573 28.9709 14.3618 28.5754 14.1554 28.0777C13.949 27.5799 13.9487 27.0205 14.1546 26.5225L14.877 24.7786C15.0828 24.2805 15.0823 23.7211 14.8758 23.2233L14.1545 21.4768C14.0522 21.2301 13.9996 20.9657 13.9995 20.6986C13.9995 20.4316 14.052 20.1672 14.1542 19.9204C14.2564 19.6737 14.4062 19.4496 14.5951 19.2608C14.7839 19.072 15.0081 18.9222 15.2549 18.8201L16.9988 18.0977C17.4964 17.892 17.892 17.4972 18.0988 17.0001L18.8217 15.2548C19.028 14.7567 19.4237 14.361 19.9217 14.1547C20.4198 13.9484 20.9794 13.9484 21.4774 14.1547L23.2214 14.8771C23.7194 15.0829 24.2788 15.0825 24.7766 14.8759L26.5225 14.1558C27.0205 13.9497 27.5799 13.9497 28.0779 14.156C28.5758 14.3622 28.9715 14.7578 29.1778 15.2558L29.9009 17.0015L29.9007 16.9985Z" stroke="white" stroke-width="2" stroke-linecap="round" stroke-linejoin="round"/>
</svg>
