<svg width="47" height="48" viewBox="0 0 47 48" fill="none" xmlns="http://www.w3.org/2000/svg">
<rect x="-0.000488281" width="47" height="48" rx="13" fill="#9FDCF7"/>
<g clip-path="url(#clip0_2021_61247)">
<path d="M21.4995 26.6667C21.4995 27.9553 22.5442 29 23.8328 29H25.9995C27.3802 29 28.4995 27.8807 28.4995 26.5C28.4995 25.1193 27.3802 24 25.9995 24H23.9995C22.6188 24 21.4995 22.8807 21.4995 21.5C21.4995 20.1193 22.6188 19 23.9995 19H26.1662C27.4548 19 28.4995 20.0447 28.4995 21.3333M24.9995 17.5V19M24.9995 29V30.5M34.9995 24C34.9995 29.5228 30.5224 34 24.9995 34C19.4767 34 14.9995 29.5228 14.9995 24C14.9995 18.4772 19.4767 14 24.9995 14C30.5224 14 34.9995 18.4772 34.9995 24Z" stroke="white" stroke-width="2" stroke-linecap="round" stroke-linejoin="round"/>
</g>
<defs>
<clipPath id="clip0_2021_61247">
<rect width="24" height="24" fill="white" transform="translate(11.9995 12)"/>
</clipPath>
</defs>
</svg>
