<svg width="47" height="48" viewBox="0 0 47 48" fill="none" xmlns="http://www.w3.org/2000/svg">
<rect x="-0.000488281" width="47" height="48" rx="13" fill="#122644"/>
<path fill-rule="evenodd" clip-rule="evenodd" d="M23.2246 14.0376C17.602 14.0376 13.0371 18.6025 13.0371 24.2251C13.0371 29.8477 17.602 34.4126 23.2246 34.4126C28.8472 34.4126 33.4121 29.8477 33.4121 24.2251C33.4121 18.6025 28.8472 14.0376 23.2246 14.0376ZM15.7702 18.7311C14.6347 20.2689 13.9634 22.1688 13.9634 24.2247C13.9634 25.9523 14.4375 27.5704 15.2626 28.9551C15.7432 28.9574 16.2259 28.9926 16.7107 29.0731C17.3632 29.1814 18.0661 29.3199 18.6263 29.6937C18.8973 29.8742 19.1404 30.1002 19.3437 30.3541C19.7155 30.817 20.0035 31.4426 19.9613 32.0507C19.9424 32.3202 19.865 32.5721 19.7581 32.8143C20.8296 33.2476 21.9992 33.4861 23.2245 33.4861C23.3343 33.4861 23.4436 33.4842 23.552 33.4805C23.2199 32.9129 22.8565 32.3577 22.6957 31.7158C22.5106 30.974 22.6351 30.3007 22.9689 29.6243C23.105 29.3491 23.2852 29.0635 23.4292 28.7666C23.5404 28.5374 23.6329 28.3022 23.625 28.0545C23.6112 27.6081 23.3166 27.3 23.036 26.9811C22.6267 26.5157 22.2202 26.0425 22.1202 25.4136C21.9831 24.5505 22.2405 23.8373 22.6314 23.1672C22.9642 22.5977 23.4014 22.0633 23.6936 21.4673C23.8057 21.2396 23.8923 20.9561 23.8984 20.6793C23.9033 20.463 23.8604 20.2478 23.7024 20.093C23.6136 20.0054 23.5005 20.0198 23.3908 20.0439C23.156 20.0949 22.9204 20.2185 22.7185 20.3047C21.7451 20.7186 20.7296 21.0487 19.6585 21.0233C18.7181 21.0011 17.8906 20.5625 17.2107 19.9369C16.7644 19.5262 16.3518 18.9576 15.7702 18.7311L15.7702 18.7311ZM24.5622 33.3898C28.1978 32.8632 31.1529 30.2205 32.136 26.7522C31.4985 26.6902 31.0419 26.2623 30.6363 25.7243C30.4334 25.4558 30.2436 25.1607 30.0334 24.9037C29.8686 24.7018 29.6949 24.5216 29.4744 24.4272C29.3036 24.3545 29.116 24.3929 28.9248 24.4402C28.6288 24.5143 28.327 24.6323 28.0393 24.699C27.4869 24.8269 26.9799 24.7847 26.5673 24.3151C25.5814 23.1946 25.6569 21.3997 25.9602 20.0412C26.0844 19.485 26.3075 18.9179 26.2562 18.3389C26.2525 18.302 26.2501 18.2713 26.2362 18.2487C26.2284 18.2366 26.2112 18.2431 26.1973 18.2399C26.1621 18.2312 26.125 18.227 26.0862 18.2237C25.8814 18.207 25.6551 18.2237 25.4592 18.2028C25.0036 18.1538 24.6304 17.9061 24.3922 17.5161C24.044 16.9457 24.1135 16.2043 24.2603 15.5913C24.3048 15.4065 24.3502 15.2216 24.3964 15.0375C24.013 14.9888 23.6218 14.9638 23.2245 14.9638C20.5099 14.9638 18.0666 16.1344 16.3714 17.9982C16.9289 18.3107 17.3813 18.8354 17.8375 19.2554C18.3519 19.7286 18.9689 20.0805 19.68 20.0978C20.6182 20.1195 21.5032 19.8148 22.3556 19.4522C22.6687 19.3193 23.0507 19.1365 23.4091 19.1058C23.7481 19.0766 24.0723 19.1587 24.351 19.4318C24.9965 20.0653 24.882 21.148 24.5251 21.8755C24.2226 22.4913 23.7749 23.0456 23.4308 23.6346C23.1456 24.1231 22.9344 24.6385 23.0344 25.2682C23.1062 25.7197 23.4373 26.0356 23.7313 26.3694C24.1546 26.8505 24.5292 27.3516 24.5506 28.0258C24.563 28.4217 24.4399 28.8041 24.2625 29.171C24.1176 29.4696 23.9362 29.7572 23.7994 30.0341C23.5665 30.5059 23.4647 30.9737 23.5943 31.4914C23.7684 32.1883 24.2171 32.7675 24.5621 33.3899L24.5622 33.3898ZM15.9139 29.9084C16.7228 30.9466 17.7476 31.8085 18.921 32.4262C18.9821 32.2863 19.0266 32.1418 19.0377 31.9863C19.0641 31.6051 18.8543 31.224 18.6219 30.9337C18.4769 30.7536 18.3051 30.5925 18.1129 30.4641C17.6605 30.1627 17.0859 30.0743 16.5589 29.9867C16.3436 29.9511 16.1287 29.9252 15.9139 29.9084L15.9139 29.9084ZM25.3104 15.1997C25.2598 15.402 25.2099 15.6044 25.1612 15.8072C25.0677 16.1967 24.9617 16.6709 25.1831 17.0334C25.2673 17.1714 25.3964 17.264 25.5586 17.2817C25.8115 17.3085 26.1134 17.2784 26.3606 17.3276C26.5737 17.3696 26.7579 17.4586 26.9009 17.6045C27.0413 17.7476 27.1515 17.9508 27.1788 18.2569C27.2385 18.9306 27.0089 19.5956 26.8644 20.243C26.6194 21.339 26.4676 22.7995 27.2631 23.7034C27.365 23.8197 27.4886 23.8414 27.6196 23.8316C27.7701 23.8202 27.9276 23.7747 28.0883 23.7256C28.4078 23.6275 28.737 23.5123 29.0514 23.4761C29.3246 23.445 29.5896 23.4692 29.8387 23.5757C30.4809 23.8503 30.9145 24.5549 31.3755 25.1667C31.6387 25.5149 31.9086 25.8418 32.3471 25.8289C32.4384 25.3075 32.486 24.7717 32.486 24.2249C32.486 19.8307 29.4192 16.1473 25.3102 15.1999L25.3104 15.1997Z" fill="#FDFDFD" stroke="#FDFDFD" stroke-width="0.4"/>
</svg>
