<svg width="74" height="74" viewBox="0 0 74 74" fill="none" xmlns="http://www.w3.org/2000/svg">
<rect opacity="0.1" width="74" height="74" rx="36" fill="#027FFF"/>
<path d="M36.7183 22.8C39.4383 22.8 41.6116 23.5467 43.2383 25.04C44.8916 26.5333 45.7183 28.5733 45.7183 31.16C45.7183 33.8533 44.8649 35.88 43.1583 37.24C41.4516 38.6 39.1849 39.28 36.3583 39.28L36.1983 42.44H32.2383L32.0383 36.16H33.3583C35.9449 36.16 37.9183 35.8133 39.2783 35.12C40.6649 34.4267 41.3583 33.1067 41.3583 31.16C41.3583 29.7467 40.9449 28.64 40.1183 27.84C39.3183 27.04 38.1983 26.64 36.7583 26.64C35.3183 26.64 34.1849 27.0267 33.3583 27.8C32.5316 28.5733 32.1183 29.6533 32.1183 31.04H27.8383C27.8383 29.44 28.1983 28.0133 28.9183 26.76C29.6383 25.5067 30.6649 24.5333 31.9983 23.84C33.3583 23.1467 34.9316 22.8 36.7183 22.8ZM34.1583 51.28C33.3316 51.28 32.6383 51 32.0783 50.44C31.5183 49.88 31.2383 49.1867 31.2383 48.36C31.2383 47.5333 31.5183 46.84 32.0783 46.28C32.6383 45.72 33.3316 45.44 34.1583 45.44C34.9583 45.44 35.6383 45.72 36.1983 46.28C36.7583 46.84 37.0383 47.5333 37.0383 48.36C37.0383 49.1867 36.7583 49.88 36.1983 50.44C35.6383 51 34.9583 51.28 34.1583 51.28Z" fill="#027FFF"/>
</svg>
