<svg width="39" height="41" viewBox="0 0 39 41" fill="none" xmlns="http://www.w3.org/2000/svg">
<path d="M38.0262 14.2647C38.2322 15.0671 37.7487 15.8845 36.9463 16.0905L23.8703 19.4476C23.0679 19.6536 22.2505 19.1701 22.0445 18.3677C21.8385 17.5653 22.3219 16.7478 23.1243 16.5418L34.7474 13.5578L31.7634 1.93471C31.5574 1.1323 32.0409 0.314827 32.8433 0.108823C33.6457 -0.0971804 34.4631 0.386298 34.6692 1.1887L38.0262 14.2647ZM2.87753 40.7434C-1.06857 33.2349 0.599095 22.3245 6.651 15.3419C9.71803 11.8032 13.9478 9.22347 19.1961 8.60052C24.4347 7.97872 30.5347 9.32358 37.3369 13.3466L35.8097 15.9287C29.4276 12.1542 23.984 11.0533 19.5497 11.5796C15.125 12.1048 11.5525 14.2671 8.91801 17.3068C3.56692 23.4808 2.23479 33.0718 5.53311 39.3478L2.87753 40.7434Z" fill="#14183E"/>
</svg>
