<svg width="244" height="498" viewBox="0 0 244 498" fill="none" xmlns="http://www.w3.org/2000/svg">
<path d="M166.033 469.415L169.038 450.645L168.516 438.481C168.516 438.121 168.777 437.827 169.137 437.827C169.463 437.827 169.757 438.088 169.79 438.415L170.28 450.253H207.723L208.246 438.415C208.246 438.088 208.54 437.827 208.867 437.827C209.226 437.827 209.488 438.154 209.488 438.481L208.965 450.645L211.938 469.415C212.036 469.513 212.101 469.644 212.101 469.808L216.186 496.688C216.186 497.047 215.891 497.309 215.565 497.309H162.406C162.047 497.309 161.785 497.047 161.785 496.688L165.869 469.808C165.869 469.808 165.967 469.546 166.065 469.415H166.033ZM167.699 469.186H178.318C178.318 469.186 178.317 469.056 178.35 468.99L178.677 451.495H169.953L167.699 469.186ZM200.503 469.186L200.601 451.495H190.701V469.186H200.503ZM189.426 451.495H180.049C180.049 451.495 180.049 451.626 180.049 451.724L179.527 469.219H189.622L189.492 451.528L189.426 451.495ZM208.05 451.495H201.907L201.614 469.186H210.304L208.05 451.495Z" fill="#65768C"/>
<path d="M167.764 495.053H187.695L187.891 470.953H170.868L167.764 495.053Z" fill="#4B596C"/>
<path d="M200.44 495.052H212.268L208.87 470.952H198.774L200.44 495.052Z" fill="#9CA9BE"/>
<path fill-rule="evenodd" clip-rule="evenodd" d="M180.014 0.196777C103.265 4.70944 12.2705 66.873 31.2208 202.318C46.6425 312.65 144.106 383.871 172.074 443.19H169.134C136.297 383.708 21.1902 313.369 2.99132 202.711C-19.4877 66.2191 89.2154 4.05543 180.014 0.196777Z" fill="#DD5928"/>
<mask id="mask0_1288_93716" style="mask-type:luminance" maskUnits="userSpaceOnUse" x="0" y="0" width="181" height="444">
<path d="M180.012 0.197021C103.263 4.70969 12.2685 66.8733 31.2189 202.319C46.6405 312.65 144.104 383.872 172.072 443.19H169.132C136.295 383.708 21.1882 313.369 2.98936 202.711C-19.4897 66.2193 89.2134 4.05568 180.012 0.197021Z" fill="white"/>
</mask>
<g mask="url(#mask0_1288_93716)">
<path fill-rule="evenodd" clip-rule="evenodd" d="M12.2718 210.985C21.1589 263.862 50.1071 313.403 92.0592 355.456C106.37 369.778 153.681 408.954 161.261 404.343C166.815 400.942 136.495 361.701 128.49 349.733C98.7246 305.195 76.6376 256.929 68.3386 207.453C60.0397 157.977 65.1041 101.275 95.4247 60.4646C103.658 49.3791 133.946 13.801 128.882 9.87691C121.04 3.82732 73.7623 37.378 59.3208 49.8696C16.9766 86.6249 3.31932 158.108 12.2064 210.985H12.2718Z" fill="#DD5928"/>
<path fill-rule="evenodd" clip-rule="evenodd" d="M59.421 52.3877C19.4619 89.9606 6.4906 159.22 15.2143 210.952C23.938 262.717 51.9389 311.343 92.5188 352.774C106.601 367.228 152.506 405.422 159.4 401.236C164.497 398.13 134.896 359.478 126.695 347.117C97.6483 303.397 76.1823 256.079 68.014 207.584C59.8457 159.089 64.4853 103.695 93.1068 62.6884C101.863 50.1314 131.465 15.4689 126.891 11.9045C119.703 6.34544 74.2219 38.4246 59.4537 52.3223L59.421 52.3877Z" fill="#D45126"/>
<path fill-rule="evenodd" clip-rule="evenodd" d="M59.4834 54.9055C21.7787 93.0997 9.62431 160.299 18.1846 210.919C26.745 261.573 53.8636 309.152 92.9732 350.093C106.859 364.644 151.327 401.923 157.535 398.13C162.175 395.317 133.226 357.254 124.927 344.534C96.6325 301.631 75.7217 255.261 67.7169 207.78C59.712 160.299 63.6981 106.016 90.784 65.01C100.063 50.9815 128.979 17.2346 124.862 14.0299C118.36 8.99406 74.6762 39.5363 59.5159 54.9055H59.4834Z" fill="#CD4B24"/>
<path fill-rule="evenodd" clip-rule="evenodd" d="M59.5433 57.4228C23.9624 96.1075 12.7555 161.378 21.1525 210.886C29.5495 260.427 55.7532 307.058 93.4252 347.411C107.115 362.06 150.113 398.391 155.635 395.055C159.817 392.537 131.587 355.03 123.092 341.982C95.647 299.831 75.1937 254.476 67.3195 207.976C59.4453 161.508 62.68 108.239 88.3936 67.2984C98.1628 51.733 126.458 18.9671 122.766 16.1222C116.917 11.5768 74.9976 40.5821 59.5106 57.4228H59.5433Z" fill="#C64522"/>
<path fill-rule="evenodd" clip-rule="evenodd" d="M59.5859 59.9409C26.0308 98.9852 15.8368 162.457 24.0704 210.854C32.304 259.25 57.5602 304.966 93.8599 344.729C107.354 359.51 148.914 394.892 153.75 391.949C157.474 389.693 129.931 352.774 121.273 339.366C94.5787 298.033 74.7136 253.626 66.9701 208.139C59.2266 162.653 61.6444 110.332 86.0185 69.5548C96.2451 52.4525 123.919 20.6676 120.717 18.1823C115.522 14.1602 75.367 41.5632 59.5859 59.9081V59.9409Z" fill="#C03E21"/>
<path fill-rule="evenodd" clip-rule="evenodd" d="M59.6522 62.4593C28.0248 101.765 18.9742 163.569 27.0444 210.821C35.1147 258.106 59.4235 302.873 94.3183 342.048C107.584 356.96 147.739 391.361 151.888 388.843C155.155 386.881 128.298 350.55 119.509 336.784C93.5669 296.268 74.257 252.809 66.6768 208.303C59.0967 163.831 60.5344 112.393 83.7322 71.8443C94.3836 53.205 121.469 22.4012 118.725 20.2756C114.216 16.744 75.7274 42.512 59.685 62.4593H59.6522Z" fill="#B9381F"/>
<path fill-rule="evenodd" clip-rule="evenodd" d="M59.7103 64.9775C29.9125 104.447 22.1038 164.649 30.0107 210.756C37.9175 256.929 61.2788 300.748 94.7686 339.335C107.838 354.344 146.555 387.797 150.019 385.737C152.828 384.036 126.657 348.294 117.705 334.201C92.514 294.502 73.7598 251.992 66.343 208.467C58.8936 164.976 59.3509 114.421 81.3726 74.101C92.4487 53.8921 118.947 24.1346 116.66 22.3361C112.804 19.3277 75.9815 43.3952 59.7103 64.9448V64.9775Z" fill="#B2321D"/>
<path fill-rule="evenodd" clip-rule="evenodd" d="M59.7789 67.4948C31.7128 107.095 25.2435 165.727 32.9543 210.723C40.6978 255.784 63.079 298.687 95.2293 336.652C108.07 351.793 145.382 384.297 148.127 382.629C150.479 381.223 124.994 346.07 115.878 331.584C91.4064 292.703 73.2729 251.141 65.9542 208.63C58.6681 166.152 58.0473 116.415 78.9907 76.3893C90.4262 54.5781 116.401 25.8671 114.604 24.4283C111.402 21.943 76.1808 44.3102 59.7462 67.4621L59.7789 67.4948Z" fill="#AC2B1B"/>
<path fill-rule="evenodd" clip-rule="evenodd" d="M59.811 70.0133C33.4112 109.712 28.3468 166.807 35.8943 210.691C43.4744 254.607 64.8752 296.628 95.6531 333.971C108.265 349.243 144.14 380.766 146.231 379.523C148.126 378.379 123.327 343.814 114.081 329.001C90.3275 290.97 72.782 250.324 65.6266 208.794C58.4713 167.297 56.7398 118.377 76.6376 78.6462C88.3999 55.2327 113.918 27.5681 112.545 26.489C110.029 24.4942 76.3108 45.1282 59.811 69.9806V70.0133Z" fill="#A52519"/>
<path fill-rule="evenodd" clip-rule="evenodd" d="M59.8797 72.5313C35.0809 112.295 31.4542 167.919 38.871 210.658C46.2878 253.463 66.6756 294.6 96.114 331.29C108.497 346.725 142.967 377.267 144.372 376.449C145.81 375.599 121.664 341.656 112.287 326.451C89.22 289.27 72.2954 249.539 65.3034 209.023C58.2787 168.54 55.4035 120.405 74.3211 81.0007C86.3448 55.9522 111.438 29.3666 110.523 28.6472C108.661 27.1757 76.4449 46.0112 59.8797 72.564V72.5313Z" fill="#9E1D16"/>
<path fill-rule="evenodd" clip-rule="evenodd" d="M59.9444 75.0487C36.6812 114.845 34.5902 168.997 41.8437 210.625C49.0971 252.318 68.4068 292.605 96.5709 328.608C108.693 344.206 141.79 373.735 142.509 373.342C143.457 372.787 120.03 339.399 110.49 323.834C88.1413 287.471 71.8375 248.688 64.9435 209.153C58.0822 169.651 53.9979 122.334 71.9681 83.2239C84.2205 56.5403 108.921 31.0666 108.497 30.6742C107.288 29.6932 76.477 46.7302 59.9444 75.0161V75.0487Z" fill="#971614"/>
<path fill-rule="evenodd" clip-rule="evenodd" d="M44.7844 210.592C51.8744 251.141 70.2366 290.545 97.0285 325.927C108.921 341.623 140.614 370.236 140.614 370.236C141.137 369.974 118.364 337.176 108.693 321.251C87.0959 285.705 71.3474 247.838 64.6167 209.35C57.8861 170.861 52.5605 124.328 69.6158 85.5457C82.0642 57.1944 106.438 32.8325 106.438 32.8325C105.916 32.342 76.4118 47.5805 59.9772 77.6322C38.1843 117.494 37.6944 170.142 44.7844 210.625V210.592Z" fill="#910D11"/>
</g>
<path fill-rule="evenodd" clip-rule="evenodd" d="M180.023 0.196249C180.709 0.196249 181.363 0.16356 182.049 0.130859C124.218 4.74163 55.7677 66.9053 70.0131 201.893C81.6447 311.897 154.996 384.002 176.168 443.19H172.051C144.083 383.871 46.6519 312.617 31.1976 202.318C12.2473 66.9052 103.242 4.70891 179.99 0.196249H180.023Z" fill="#DD5928"/>
<mask id="mask1_1288_93716" style="mask-type:luminance" maskUnits="userSpaceOnUse" x="28" y="0" width="155" height="444">
<path d="M180.023 0.196249C180.709 0.196249 181.363 0.16356 182.049 0.130859C124.218 4.74163 55.7677 66.9053 70.0131 201.893C81.6447 311.897 154.996 384.002 176.168 443.19H172.051C144.083 383.871 46.6519 312.617 31.1976 202.318C12.2473 66.9052 103.242 4.70891 179.99 0.196249H180.023Z" fill="white"/>
</mask>
<g mask="url(#mask1_1288_93716)">
<path fill-rule="evenodd" clip-rule="evenodd" d="M46.3936 223.377C56.7509 283.055 86.6466 340.346 129.024 390.149C143.465 407.121 190.972 454.046 198.258 449.37C203.583 445.969 172.707 400.09 164.474 386.127C133.924 334.395 110.825 278.967 101.154 223.115C91.4497 167.263 94.6189 104.249 122.946 60.6591C130.625 48.8216 159.116 11.0525 154.051 6.37632C146.21 -0.915882 101.023 33.4196 87.3327 46.4344C47.1123 84.6613 36.0362 163.666 46.3936 223.377Z" fill="#DD5928"/>
<path fill-rule="evenodd" clip-rule="evenodd" d="M87.4609 49.2471C49.6582 88.4877 39.1047 165.105 49.2986 223.508C59.46 281.944 88.4083 338.123 129.38 387.141C143.626 404.243 189.695 449.991 196.327 445.74C201.228 442.601 171.006 397.442 162.641 383.086C132.844 332.302 110.332 277.987 100.824 223.246C91.3162 168.538 94.0935 106.833 120.722 63.014C128.923 49.5415 156.728 12.7861 152.121 8.53505C144.933 1.83145 101.51 34.63 87.4609 49.2144V49.2471Z" fill="#D45126"/>
<path fill-rule="evenodd" clip-rule="evenodd" d="M87.5963 52.091C52.0481 92.1491 42.1808 166.543 52.1787 223.703C62.144 280.864 90.2103 335.866 129.745 384.23C143.794 401.43 188.425 446.034 194.404 442.24C198.848 439.395 169.344 394.923 160.816 380.175C131.803 330.372 109.847 277.136 100.502 223.54C91.1577 169.944 93.4122 109.382 118.505 65.5309C127.163 50.4233 154.347 14.6817 150.198 10.8557C143.663 4.77346 102.005 35.9697 87.629 52.1564L87.5963 52.091Z" fill="#CD4B24"/>
<path fill-rule="evenodd" clip-rule="evenodd" d="M87.7202 54.9034C54.2957 95.5828 45.278 167.949 55.0472 223.834C64.8164 279.752 91.9351 333.61 130.065 381.221C143.918 398.52 187.112 441.979 192.405 438.611C196.423 436.06 167.639 392.274 158.915 377.101C130.751 328.181 109.317 276.122 100.136 223.638C90.955 171.154 92.5233 111.671 116.244 67.8528C125.327 51.0448 151.89 16.3823 148.231 12.9487C142.382 7.48776 102.39 37.0163 87.7202 54.9034Z" fill="#C64522"/>
<path fill-rule="evenodd" clip-rule="evenodd" d="M87.8537 57.7156C56.455 98.8855 48.3519 169.388 57.9251 223.998C67.4983 278.64 93.6694 331.419 130.427 378.278C144.084 395.708 185.873 437.989 190.48 435.046C194.074 432.79 165.942 389.691 157.055 374.125C129.642 326.154 108.797 275.206 99.7793 223.834C90.7615 172.494 91.5458 113.993 113.992 70.2726C123.5 51.7641 149.475 18.1807 146.273 15.1723C141.078 10.2999 102.753 38.1607 87.821 57.7483L87.8537 57.7156Z" fill="#C03E21"/>
<path fill-rule="evenodd" clip-rule="evenodd" d="M87.9865 60.5608C58.4501 102.123 51.4254 170.827 60.8352 224.161C70.2124 277.528 95.4359 329.195 130.788 375.303C144.249 392.83 184.568 433.968 188.554 431.45C191.691 429.455 164.278 387.075 155.228 371.117C128.566 324.127 108.309 274.258 99.4874 223.998C90.6657 173.77 90.5349 116.217 111.805 72.6273C121.672 52.4184 147.125 19.9141 144.38 17.3308C139.839 13.1124 103.147 39.2074 87.9865 60.5281V60.5608Z" fill="#B9381F"/>
<path fill-rule="evenodd" clip-rule="evenodd" d="M88.1539 63.3727C60.4145 105.295 54.5661 172.265 63.7472 224.324C72.9284 276.449 97.1718 327.004 131.152 372.327C144.417 389.985 183.33 429.945 186.63 427.852C189.31 426.152 162.616 384.459 153.402 368.076C127.492 322.033 107.823 273.277 99.1647 224.161C90.5063 175.078 89.3955 118.408 109.587 75.014C119.814 53.072 144.744 21.6796 142.456 19.5213C138.601 15.8916 103.445 40.2534 88.1539 63.34V63.3727Z" fill="#B2321D"/>
<path fill-rule="evenodd" clip-rule="evenodd" d="M88.2823 66.1855C62.2419 108.369 57.635 173.672 66.62 224.456C75.6051 275.305 98.8683 324.814 131.509 369.352C144.545 387.141 182.054 425.923 184.7 424.256C186.955 422.85 160.914 381.843 151.57 365.068C126.412 320.007 107.331 272.329 98.8356 224.325C90.3406 176.353 88.2168 120.566 107.363 77.4018C117.884 53.6939 142.356 23.446 140.526 21.7129C137.324 18.7044 103.671 41.235 88.2823 66.1528V66.1855Z" fill="#AC2B1B"/>
<path fill-rule="evenodd" clip-rule="evenodd" d="M88.4068 68.9976C63.9674 111.41 60.7 175.078 69.5217 224.619C78.3107 274.193 100.594 322.622 131.862 366.376C144.67 384.295 180.773 421.901 182.766 420.658C184.564 419.514 159.242 379.227 149.734 362.059C125.327 317.946 106.834 271.381 98.5353 224.488C90.2364 177.661 87.0019 122.724 105.168 79.7887C115.95 54.315 139.997 25.2116 138.625 23.9036C136.077 21.5165 103.861 42.1832 88.4395 68.9976H88.4068Z" fill="#A52519"/>
<path fill-rule="evenodd" clip-rule="evenodd" d="M88.5462 71.8432C65.6424 114.485 63.8127 176.55 72.4057 224.783C80.9987 273.115 102.269 320.465 132.23 363.401C144.809 381.451 179.508 417.912 180.847 417.062C182.22 416.212 157.519 376.644 147.913 359.019C124.16 315.92 106.353 270.4 98.2174 224.653C90.0819 178.937 85.7364 124.883 102.955 82.1766C113.933 54.9371 137.621 26.9782 136.706 26.0953C134.844 24.3294 103.968 43.1322 88.5789 71.8106L88.5462 71.8432Z" fill="#9E1D16"/>
<path fill-rule="evenodd" clip-rule="evenodd" d="M88.6746 74.6548C67.2411 117.525 66.8815 177.956 75.2785 224.946C83.7081 272.002 103.867 318.339 132.554 360.457C144.905 378.671 178.199 413.922 178.885 413.497C179.8 412.941 155.818 374.06 146.016 356.042C123.014 313.924 105.828 269.484 97.823 224.848C89.8508 180.277 84.3617 127.041 100.666 84.5957C111.84 55.5577 135.135 28.7434 134.711 28.3183C133.502 27.1411 103.933 44.0799 88.6419 74.6548H88.6746Z" fill="#971614"/>
<path fill-rule="evenodd" clip-rule="evenodd" d="M78.1868 225.11C86.3877 270.923 105.599 316.148 132.914 357.481C145.036 375.826 176.957 409.9 176.957 409.9C177.447 409.638 154.152 371.477 144.186 353.034C121.936 311.864 105.338 268.536 97.5291 225.012C89.7203 181.553 83.0551 129.199 98.4768 86.983C109.749 56.1464 132.816 30.5093 132.816 30.5093C132.293 29.9206 103.933 44.9956 88.8382 77.4671C68.8096 120.566 69.9859 179.362 78.2195 225.077L78.1868 225.11Z" fill="#910D11"/>
</g>
<path fill-rule="evenodd" clip-rule="evenodd" d="M114.018 201.5C121.337 311.177 167.471 384.165 180.867 443.189H176.162C154.99 384.001 81.6391 311.897 70.0075 201.893C55.7294 66.8723 124.212 4.74137 182.043 0.1306C182.893 0.1306 183.742 0.0651855 184.592 0.0651855C148.161 4.70865 105.033 66.8068 114.018 201.5Z" fill="#DD5928"/>
<mask id="mask2_1288_93716" style="mask-type:luminance" maskUnits="userSpaceOnUse" x="68" y="0" width="117" height="444">
<path d="M114.02 201.5C121.339 311.178 167.473 384.165 180.869 443.19H176.164C154.992 384.002 81.641 311.897 70.0094 201.893C55.7313 66.8725 124.214 4.74161 182.045 0.130845C182.895 0.130845 183.744 0.0654297 184.594 0.0654297C148.163 4.7089 105.035 66.8071 114.02 201.5Z" fill="white"/>
</mask>
<g mask="url(#mask2_1288_93716)">
<path fill-rule="evenodd" clip-rule="evenodd" d="M74.2252 234.005C83.1122 298.621 112.061 359.117 154.046 410.522C168.356 428.049 215.667 475.857 223.247 470.233C228.801 466.113 198.481 418.174 190.476 403.524C160.678 349.143 138.624 290.151 130.325 229.688C122.026 169.225 127.09 99.9983 157.411 50.1301C165.644 36.5921 195.932 -6.89957 190.868 -11.6738C183.026 -19.0641 135.749 21.9095 121.34 37.1806C78.9956 82.0784 65.3381 169.421 74.2252 234.005Z" fill="#DD5928"/>
<path fill-rule="evenodd" clip-rule="evenodd" d="M121.371 40.2547C81.5097 86.0353 68.4404 170.73 77.164 233.972C85.8877 297.215 113.888 356.599 154.468 407.252C168.55 424.91 214.456 471.574 221.35 466.44C226.447 462.647 196.813 415.427 188.644 400.352C159.598 346.952 138.099 289.138 129.964 229.917C121.795 170.697 126.468 102.876 155.057 52.9097C163.846 37.5405 193.415 -4.77387 188.84 -9.12303C181.685 -15.892 136.237 23.2177 121.403 40.2547H121.371Z" fill="#D45126"/>
<path fill-rule="evenodd" clip-rule="evenodd" d="M121.44 43.3282C83.8989 89.7956 71.5812 172.07 80.1415 233.907C88.7018 295.776 115.853 353.95 154.93 403.949C168.816 421.738 213.251 467.257 219.492 462.646C224.132 459.213 195.183 412.68 186.884 397.18C158.59 344.794 137.679 288.124 129.674 230.113C121.669 172.103 125.72 105.59 152.741 55.689C162.053 38.4885 190.936 -2.68136 186.819 -6.57271C180.317 -12.7204 136.699 24.5254 121.473 43.3609L121.44 43.3282Z" fill="#CD4B24"/>
<path fill-rule="evenodd" clip-rule="evenodd" d="M121.501 46.4018C86.1157 93.3923 74.7128 173.378 83.0771 233.874C91.474 294.369 117.71 351.366 155.382 400.679C169.072 418.598 212.07 462.973 217.592 458.853C221.774 455.746 193.545 409.933 185.05 394.008C157.604 342.537 137.151 287.077 129.277 230.309C121.403 173.508 124.768 108.238 150.351 58.4682C160.153 39.4039 188.415 -0.556111 184.723 -4.05506C178.874 -9.61414 137.053 25.7024 121.468 46.4018H121.501Z" fill="#C64522"/>
<path fill-rule="evenodd" clip-rule="evenodd" d="M121.529 49.4763C88.1701 96.8593 77.7801 174.719 86.0137 233.809C94.2473 292.931 119.536 348.784 155.803 397.377C169.297 415.46 210.857 458.657 215.693 455.06C219.418 452.313 191.874 407.219 183.216 390.836C156.522 340.38 136.657 286.064 128.913 230.506C121.17 174.948 123.686 110.79 147.962 61.2484C158.254 40.2874 185.862 1.53737 182.66 -1.50377C177.498 -6.44154 137.408 26.9129 121.529 49.4763Z" fill="#C03E21"/>
<path fill-rule="evenodd" clip-rule="evenodd" d="M121.601 52.5497C90.1699 100.227 80.9234 176.059 88.9937 233.776C97.0639 291.525 121.405 346.265 156.267 394.106C169.533 412.32 209.688 454.341 213.837 451.267C217.105 448.847 190.247 404.472 181.458 387.664C155.516 338.188 136.206 285.05 128.626 230.702C121.046 176.354 122.581 113.307 145.681 63.9949C156.398 41.1046 183.419 3.62984 180.674 1.0138C176.165 -3.26996 137.774 28.0244 121.634 52.5497H121.601Z" fill="#B9381F"/>
<path fill-rule="evenodd" clip-rule="evenodd" d="M121.667 55.6563C92.033 103.595 84.0609 177.4 91.9677 233.743C99.8746 290.151 123.236 343.747 156.725 390.836C169.795 409.214 208.512 450.057 211.976 447.506C214.786 445.446 188.614 401.791 179.662 384.525C154.471 336.063 135.717 284.069 128.3 230.931C120.851 177.793 121.373 115.825 143.33 66.8071C154.438 42.0201 180.904 5.75534 178.616 3.59711C174.761 -0.0653467 138.037 29.2016 121.667 55.6563Z" fill="#B2321D"/>
<path fill-rule="evenodd" clip-rule="evenodd" d="M121.736 58.7299C93.8332 106.832 87.2005 178.741 94.9113 233.71C102.655 288.745 125.069 341.229 157.186 387.566C170.027 406.074 207.339 445.773 210.084 443.712C212.436 441.979 186.951 399.044 177.835 381.385C153.363 333.904 135.23 283.088 127.911 231.159C120.625 179.264 120.07 118.343 140.948 69.6191C152.416 42.8701 178.358 7.91328 176.561 6.14746C173.359 3.10631 138.236 30.2804 121.703 58.7299H121.736Z" fill="#AC2B1B"/>
<path fill-rule="evenodd" clip-rule="evenodd" d="M121.762 61.8037C95.4934 110.07 90.2983 180.049 97.8458 233.645C105.426 287.306 126.827 338.679 157.605 384.263C170.216 402.935 206.091 441.424 208.182 439.919C210.077 438.546 185.246 396.33 176.032 378.214C152.214 331.812 134.734 282.074 127.578 231.388C120.423 180.703 118.724 120.795 138.589 72.3987C150.384 43.7204 175.869 10.0062 174.497 8.69819C171.948 6.27836 138.328 31.3269 121.73 61.8365L121.762 61.8037Z" fill="#A52519"/>
<path fill-rule="evenodd" clip-rule="evenodd" d="M121.826 64.878C97.1247 113.307 93.4327 181.39 100.817 233.613C108.234 285.901 128.622 336.194 158.06 380.994C170.443 399.829 204.913 437.14 206.318 436.127C207.723 435.08 183.61 393.616 174.233 375.042C151.166 329.621 134.241 281.061 127.249 231.585C120.257 182.109 117.382 123.248 136.267 75.1787C148.323 44.5057 173.384 12.1322 172.469 11.2493C170.606 9.45074 138.423 32.3738 121.826 64.9108V64.878Z" fill="#9E1D16"/>
<path fill-rule="evenodd" clip-rule="evenodd" d="M121.898 67.952C98.6677 116.512 96.5441 182.698 103.797 233.547C111.051 284.462 130.36 333.709 158.557 377.691C170.679 396.723 203.777 432.824 204.496 432.333C205.443 431.647 182.017 390.869 172.476 371.87C150.128 327.463 133.824 280.047 126.963 231.781C120.101 183.548 116.017 125.668 133.987 77.9583C146.272 45.3233 170.94 14.2251 170.516 13.7673C169.307 12.5901 138.529 33.3222 121.964 67.952H121.898Z" fill="#971614"/>
<path fill-rule="evenodd" clip-rule="evenodd" d="M106.739 233.514C113.829 283.055 132.192 331.19 158.983 374.42C170.876 393.615 202.569 428.539 202.569 428.539C203.092 428.212 180.319 388.154 170.648 368.698C149.051 325.271 133.302 279.033 126.572 231.977C119.841 184.954 114.516 128.12 131.571 80.7372C144.019 46.1074 168.393 16.3173 168.393 16.3173C167.87 15.7286 138.367 34.3352 121.932 71.0252C100.139 119.716 99.6492 184.038 106.739 233.514Z" fill="#910D11"/>
</g>
<path fill-rule="evenodd" clip-rule="evenodd" d="M197.989 0.196533C274.738 4.7092 365.733 66.8728 346.782 202.318C331.361 312.65 233.897 383.871 205.929 443.19H208.869C241.706 383.708 356.813 313.369 375.012 202.711C397.491 66.2188 288.788 4.05519 197.989 0.196533Z" fill="#DD5928"/>
<mask id="mask3_1288_93716" style="mask-type:luminance" maskUnits="userSpaceOnUse" x="197" y="0" width="182" height="444">
<path d="M197.989 0.196533C274.738 4.7092 365.733 66.8728 346.782 202.318C331.361 312.65 233.897 383.871 205.929 443.19H208.869C241.706 383.708 356.813 313.369 375.012 202.711C397.491 66.2188 288.788 4.05519 197.989 0.196533Z" fill="white"/>
</mask>
<g mask="url(#mask3_1288_93716)">
<path fill-rule="evenodd" clip-rule="evenodd" d="M365.698 210.984C356.811 263.861 327.863 313.402 285.911 355.455C271.6 369.778 224.289 408.953 216.709 404.342C211.155 400.941 241.475 361.701 249.48 349.733C279.245 305.194 301.332 256.929 309.631 207.453C317.93 157.977 312.866 101.274 282.545 60.4641C274.312 49.3786 244.024 13.8005 249.088 9.87642C256.93 3.82683 304.207 37.3775 318.649 49.8691C360.993 86.6245 374.651 158.108 365.763 210.984H365.698Z" fill="#DD5928"/>
<path fill-rule="evenodd" clip-rule="evenodd" d="M318.554 52.3872C358.513 89.9601 371.484 159.22 362.76 210.952C354.037 262.717 326.036 311.342 285.456 352.774C271.374 367.227 225.468 405.422 218.574 401.236C213.477 398.129 243.112 359.477 251.28 347.117C280.326 303.396 301.792 256.078 309.961 207.584C318.129 159.089 313.489 103.694 284.868 62.6879C276.111 50.1309 246.51 15.4684 251.084 11.904C258.272 6.34495 303.753 38.4241 318.521 52.3218L318.554 52.3872Z" fill="#D45126"/>
<path fill-rule="evenodd" clip-rule="evenodd" d="M318.49 54.9043C356.194 93.0984 368.349 160.298 359.788 210.918C351.228 261.571 324.109 309.15 285 350.091C271.114 364.643 226.646 401.922 220.438 398.128C215.798 395.316 244.747 357.253 253.046 344.532C281.341 301.629 302.251 255.26 310.256 207.779C318.261 160.298 314.275 106.015 287.189 65.0088C277.91 50.9803 248.994 17.2334 253.111 14.0287C259.613 8.99284 303.297 39.5351 318.457 54.9043H318.49Z" fill="#CD4B24"/>
<path fill-rule="evenodd" clip-rule="evenodd" d="M318.42 57.4224C354.001 96.107 365.207 161.377 356.81 210.886C348.414 260.427 322.21 307.058 284.538 347.41C270.848 362.093 227.85 398.39 222.296 395.055C218.113 392.537 246.343 355.029 254.838 341.982C282.283 299.831 302.737 254.475 310.611 207.975C318.485 161.508 315.25 108.206 289.537 67.2979C279.767 51.7325 251.473 18.9666 255.165 16.1217C261.013 11.5763 302.933 40.5816 318.42 57.4224Z" fill="#C64522"/>
<path fill-rule="evenodd" clip-rule="evenodd" d="M318.387 59.9406C351.943 98.985 362.137 162.457 353.903 210.853C345.669 259.25 320.413 304.965 284.113 344.729C270.619 359.51 229.059 394.892 224.224 391.949C220.499 389.692 248.042 352.773 256.701 339.366C283.395 298.033 303.26 253.626 311.003 208.139C318.747 162.653 316.362 110.332 291.955 69.5546C281.728 52.4522 254.054 20.6673 257.256 18.1821C262.451 14.1599 302.606 41.5629 318.387 59.9079V59.9406Z" fill="#C03E21"/>
<path fill-rule="evenodd" clip-rule="evenodd" d="M318.322 62.4588C349.949 101.765 359 163.569 350.929 210.821C342.859 258.106 318.551 302.873 283.656 342.048C270.391 356.959 230.236 391.36 226.086 388.842C222.819 386.88 249.676 350.55 258.465 336.783C284.407 296.267 303.717 252.808 311.297 208.303C318.877 163.83 317.44 112.392 294.242 71.8438C283.59 53.2045 256.504 22.4334 259.249 20.2752C263.758 16.7435 302.247 42.5115 318.289 62.4588H318.322Z" fill="#B9381F"/>
<path fill-rule="evenodd" clip-rule="evenodd" d="M318.259 64.977C348.057 104.446 355.866 164.648 347.959 210.756C340.052 256.929 316.691 300.747 283.201 339.334C270.132 354.376 231.414 387.796 227.951 385.736C225.141 384.036 251.312 348.294 260.265 334.2C285.456 294.502 304.21 251.991 311.627 208.467C319.076 164.975 318.619 114.42 296.597 74.1005C285.521 53.8916 259.023 24.1341 261.31 22.3356C265.166 19.3272 301.988 43.3947 318.259 64.9443V64.977Z" fill="#B2321D"/>
<path fill-rule="evenodd" clip-rule="evenodd" d="M318.191 67.4943C346.257 107.095 352.727 165.727 345.016 210.722C337.272 255.784 314.891 298.687 282.741 336.652C269.901 351.792 232.588 384.297 229.843 382.629C227.491 381.223 252.976 346.07 262.092 331.583C286.564 292.702 304.697 251.14 312.016 208.63C319.302 166.152 319.923 116.414 298.98 76.3889C287.544 54.5776 261.536 25.8666 263.366 24.4278C266.568 21.9426 301.79 44.3097 318.224 67.4616L318.191 67.4943Z" fill="#AC2B1B"/>
<path fill-rule="evenodd" clip-rule="evenodd" d="M318.155 70.013C344.555 109.711 349.619 166.806 342.072 210.69C334.492 254.607 313.123 296.66 282.313 333.971C269.701 349.242 233.826 380.766 231.735 379.523C229.84 378.378 254.639 343.814 263.885 329.001C287.639 290.97 305.184 250.323 312.339 208.794C319.495 167.297 321.226 118.377 301.296 78.646C289.533 55.2324 264.016 27.5678 265.388 26.4887C267.904 24.494 301.623 45.128 318.122 69.9803L318.155 70.013Z" fill="#A52519"/>
<path fill-rule="evenodd" clip-rule="evenodd" d="M318.092 72.5308C342.891 112.295 346.518 167.918 339.101 210.658C331.684 253.463 311.296 294.6 281.858 331.29C269.475 346.724 235.005 377.267 233.6 376.449C232.162 375.599 256.308 341.656 265.685 326.45C288.752 289.27 305.676 249.538 312.668 209.023C319.693 168.539 322.568 120.404 303.651 81.0002C291.627 55.9517 266.534 29.3662 267.449 28.6467C269.311 27.1752 301.527 46.0107 318.092 72.5635V72.5308Z" fill="#9E1D16"/>
<path fill-rule="evenodd" clip-rule="evenodd" d="M318.03 75.0483C341.293 114.845 343.384 168.997 336.131 210.624C328.877 252.318 309.568 292.605 281.403 328.608C269.282 344.206 236.184 373.734 235.465 373.342C234.485 372.786 257.944 339.399 267.485 323.833C289.833 287.471 306.137 248.688 313.031 209.153C319.892 169.651 323.976 122.333 306.006 83.2234C293.754 56.5398 269.053 31.0661 269.51 30.6737C270.719 29.6927 301.53 46.7297 318.062 75.0156L318.03 75.0483Z" fill="#971614"/>
<path fill-rule="evenodd" clip-rule="evenodd" d="M333.193 210.592C326.102 251.141 307.74 290.545 280.948 325.927C269.055 341.623 237.363 370.236 237.363 370.236C236.84 369.974 259.613 337.176 269.284 321.251C290.881 285.705 306.629 247.838 313.36 209.349C320.091 170.861 325.416 124.328 308.361 85.5455C295.913 57.1942 271.539 32.8323 271.539 32.8323C272.061 32.3418 301.565 47.5802 318 77.632C339.793 117.494 340.283 170.142 333.193 210.625V210.592Z" fill="#910D11"/>
</g>
<path fill-rule="evenodd" clip-rule="evenodd" d="M197.986 0.196249C197.3 0.196249 196.647 0.16356 195.961 0.130859C253.792 4.74163 322.242 66.9053 307.996 201.893C296.365 311.897 223.014 384.002 201.842 443.19H205.958C233.894 383.871 331.358 312.617 346.812 202.318C365.762 66.9052 274.768 4.70891 198.019 0.196249H197.986Z" fill="#DD5928"/>
<mask id="mask4_1288_93716" style="mask-type:luminance" maskUnits="userSpaceOnUse" x="195" y="0" width="155" height="444">
<path d="M197.984 0.196249C197.298 0.196249 196.645 0.16356 195.959 0.130859C253.79 4.74163 322.24 66.9053 307.994 201.893C296.363 311.897 223.012 384.002 201.84 443.19H205.956C233.892 383.871 331.356 312.617 346.81 202.318C365.76 66.9052 274.766 4.70891 198.017 0.196249H197.984Z" fill="white"/>
</mask>
<g mask="url(#mask4_1288_93716)">
<path fill-rule="evenodd" clip-rule="evenodd" d="M331.583 223.378C321.225 283.056 291.33 340.347 248.953 390.15C234.511 407.122 187.005 454.047 179.719 449.371C174.393 445.97 205.269 400.091 213.503 386.128C244.052 334.396 267.152 278.968 276.823 223.116C286.527 167.264 283.357 104.25 255.03 60.6601C247.352 48.8225 218.861 11.0535 223.925 6.3773C231.767 -0.914906 276.954 33.4206 290.644 46.4354C330.864 84.6622 341.94 163.667 331.583 223.378Z" fill="#DD5928"/>
<path fill-rule="evenodd" clip-rule="evenodd" d="M290.516 49.2481C328.318 88.4887 338.872 165.106 328.71 223.509C318.549 281.945 289.601 338.124 248.629 387.142C234.383 404.244 188.314 449.992 181.682 445.741C176.781 442.602 207.003 397.443 215.368 383.087C245.165 332.303 267.677 277.988 277.185 223.247C286.693 168.539 283.916 106.834 257.287 63.015C249.119 49.5424 221.281 12.7871 225.888 8.53602C233.076 1.83243 276.499 34.631 290.548 49.2154L290.516 49.2481Z" fill="#D45126"/>
<path fill-rule="evenodd" clip-rule="evenodd" d="M290.383 52.092C325.931 92.1501 335.798 166.544 325.8 223.704C315.835 280.865 287.769 335.867 248.235 384.231C234.185 401.431 189.554 446.035 183.575 442.241C179.131 439.396 208.635 394.924 217.163 380.176C246.176 330.373 268.1 277.137 277.477 223.541C286.821 169.945 284.567 109.383 259.474 65.5319C250.816 50.4243 223.632 14.6827 227.781 10.8567C234.316 4.77444 275.974 35.9707 290.35 52.1574L290.383 52.092Z" fill="#CD4B24"/>
<path fill-rule="evenodd" clip-rule="evenodd" d="M290.249 54.9044C323.674 95.5838 332.691 167.95 322.922 223.835C313.153 279.753 286.034 333.611 247.905 381.222C234.052 398.521 190.858 441.98 185.565 438.612C181.546 436.061 210.331 392.275 219.055 377.102C247.219 328.182 268.652 276.123 277.833 223.639C287.014 171.155 285.446 111.672 261.726 67.8538C252.643 51.0458 226.079 16.3833 229.739 12.9497C235.587 7.48873 275.579 37.0172 290.249 54.9044Z" fill="#C64522"/>
<path fill-rule="evenodd" clip-rule="evenodd" d="M290.12 57.7166C321.519 98.8865 329.622 169.389 320.048 223.999C310.475 278.641 284.304 331.42 247.547 378.279C233.89 395.709 192.101 437.99 187.494 435.047C183.933 432.791 212.031 389.692 220.918 374.126C248.331 326.155 269.177 275.207 278.194 223.835C287.212 172.495 286.428 113.994 263.981 70.2736C254.474 51.7652 228.499 18.1818 231.7 15.1733C236.895 10.3337 275.221 38.1618 290.153 57.7494L290.12 57.7166Z" fill="#C03E21"/>
<path fill-rule="evenodd" clip-rule="evenodd" d="M289.985 60.5621C319.522 102.124 326.546 170.828 317.136 224.163C307.759 277.53 282.536 329.196 247.183 375.304C233.722 392.832 193.371 433.969 189.418 431.451C186.281 429.456 213.694 387.076 222.744 371.118C249.405 324.128 269.663 274.26 278.484 223.999C287.306 173.771 287.469 116.218 266.166 72.6286C256.299 52.4197 230.847 19.9154 233.592 17.3321C238.133 13.081 274.825 39.2086 289.985 60.5293V60.5621Z" fill="#B9381F"/>
<path fill-rule="evenodd" clip-rule="evenodd" d="M289.822 63.3741C317.562 105.263 323.41 172.267 314.229 224.326C305.048 276.45 280.804 327.005 246.825 372.328C233.559 389.986 194.646 429.946 191.346 427.854C188.667 426.153 215.36 384.46 224.574 368.077C250.484 322.035 270.153 273.278 278.811 224.162C287.47 175.079 288.581 118.409 268.389 75.0154C258.162 53.0734 233.232 21.681 235.52 19.5227C239.375 15.893 274.531 40.2221 289.822 63.3413V63.3741Z" fill="#B2321D"/>
<path fill-rule="evenodd" clip-rule="evenodd" d="M289.698 66.1865C315.739 108.37 320.346 173.673 311.361 224.457C302.376 275.306 279.112 324.814 246.472 369.353C233.436 387.142 195.927 425.924 193.28 424.257C191.026 422.851 217.066 381.844 226.411 365.069C251.569 320.008 270.65 272.33 279.145 224.326C287.64 176.354 289.764 120.567 270.618 77.4027C260.097 53.6949 235.625 23.447 237.454 21.7138C240.656 18.7054 274.309 41.236 289.698 66.1538V66.1865Z" fill="#AC2B1B"/>
<path fill-rule="evenodd" clip-rule="evenodd" d="M289.561 68.9986C314 111.411 317.267 175.079 308.446 224.62C299.657 274.194 277.374 322.623 246.106 366.377C233.298 384.296 197.194 421.902 195.201 420.659C193.404 419.515 218.726 379.228 228.266 362.06C252.673 317.947 271.133 271.382 279.465 224.489C287.764 177.662 290.998 122.725 272.832 79.7897C262.05 54.316 238.003 25.2126 239.375 23.9046C241.924 21.5175 274.139 42.1842 289.561 68.9986Z" fill="#A52519"/>
<path fill-rule="evenodd" clip-rule="evenodd" d="M289.432 71.8438C312.336 114.485 314.166 176.551 305.573 224.784C296.98 273.115 275.71 320.465 245.749 363.401C233.17 381.452 198.471 417.913 197.131 417.063C195.759 416.212 220.46 376.645 230.098 359.019C253.852 315.92 271.626 270.401 279.794 224.653C287.93 178.938 292.275 124.884 275.056 82.1771C264.078 54.9376 240.423 26.9787 241.305 26.0958C243.2 24.2973 274.043 43.1328 289.432 71.8111V71.8438Z" fill="#9E1D16"/>
<path fill-rule="evenodd" clip-rule="evenodd" d="M289.301 74.6558C310.735 117.526 311.094 177.957 302.697 224.947C294.268 272.003 274.108 318.34 245.421 360.458C233.071 378.672 199.777 413.923 199.091 413.498C198.176 412.942 222.158 374.061 231.96 356.043C254.962 313.925 272.148 269.485 280.12 224.849C288.092 180.278 293.581 127.042 277.278 84.5967C266.103 55.5587 242.808 28.7444 243.232 28.3192C244.441 27.142 274.01 44.0809 289.301 74.6558Z" fill="#971614"/>
<path fill-rule="evenodd" clip-rule="evenodd" d="M299.79 225.111C291.557 270.924 272.378 316.149 245.03 357.482C232.909 375.827 200.987 409.901 200.987 409.901C200.497 409.639 223.793 371.478 233.758 353.035C256.008 311.865 272.606 268.537 280.415 225.013C288.224 181.554 294.889 129.2 279.468 86.9839C268.195 56.1474 245.128 30.5102 245.128 30.5102C245.651 29.9216 274.011 44.9965 289.106 77.4681C309.135 120.567 307.958 179.363 299.725 225.078L299.79 225.111Z" fill="#910D11"/>
</g>
<path fill-rule="evenodd" clip-rule="evenodd" d="M263.958 201.501C256.639 311.178 210.505 384.166 197.109 443.19H201.814C222.986 384.002 296.337 311.898 307.969 201.893C322.247 66.873 253.764 4.7421 195.933 0.131333C195.083 0.131333 194.234 0.065918 193.384 0.065918C229.815 4.70938 272.943 66.8076 263.958 201.501Z" fill="#DD5928"/>
<mask id="mask5_1288_93716" style="mask-type:luminance" maskUnits="userSpaceOnUse" x="193" y="0" width="117" height="444">
<path d="M263.958 201.501C256.639 311.178 210.505 384.166 197.109 443.19H201.814C222.986 384.002 296.337 311.898 307.969 201.893C322.247 66.873 253.764 4.7421 195.933 0.131333C195.083 0.131333 194.234 0.065918 193.384 0.065918C229.815 4.70938 272.943 66.8076 263.958 201.501Z" fill="white"/>
</mask>
<g mask="url(#mask5_1288_93716)">
<path fill-rule="evenodd" clip-rule="evenodd" d="M303.756 234.005C294.869 298.621 265.92 359.117 223.935 410.522C209.625 428.05 162.314 475.858 154.734 470.233C149.18 466.113 179.5 418.174 187.505 403.524C217.27 349.144 239.357 290.152 247.656 229.689C255.955 169.226 250.891 99.9988 220.57 50.1305C212.337 36.5925 182.049 -6.89908 187.113 -11.6734C194.955 -19.0637 242.232 21.91 256.641 37.1811C298.985 82.0789 312.643 169.422 303.756 234.005Z" fill="#DD5928"/>
<path fill-rule="evenodd" clip-rule="evenodd" d="M256.608 40.2552C296.469 86.0358 309.538 170.73 300.814 233.973C292.091 297.215 264.09 356.6 223.51 407.253C209.428 424.911 163.522 471.574 156.628 466.44C151.531 462.647 181.166 415.428 189.334 400.353C218.38 346.953 239.846 289.138 248.015 229.918C256.183 170.697 251.511 102.877 222.922 52.9102C214.133 37.541 184.564 -4.77338 189.138 -9.12254C196.293 -15.8915 241.741 23.2182 256.575 40.2552H256.608Z" fill="#D45126"/>
<path fill-rule="evenodd" clip-rule="evenodd" d="M256.54 43.3287C294.081 89.7961 306.399 172.07 297.871 233.907C289.311 295.776 262.159 353.95 223.082 403.949C209.164 421.739 164.761 467.258 158.521 462.647C153.881 459.213 182.829 412.681 191.128 397.181C219.423 344.794 240.334 288.124 248.339 230.114C256.344 172.103 252.292 105.59 225.272 55.6895C215.96 38.489 187.077 -2.68087 191.194 -6.57223C197.696 -12.7199 241.314 24.5259 256.54 43.3614V43.3287Z" fill="#CD4B24"/>
<path fill-rule="evenodd" clip-rule="evenodd" d="M256.482 46.4025C291.867 93.3931 303.27 173.379 294.906 233.874C286.509 294.37 260.305 351.4 222.633 400.68C208.943 418.599 165.945 462.974 160.423 458.854C156.241 455.747 184.504 409.967 192.966 394.009C220.509 342.604 240.864 287.078 248.739 230.31C256.613 173.509 253.28 108.239 227.665 58.469C217.863 39.4046 189.6 -0.555353 193.292 -4.0543C199.141 -9.61339 240.963 25.7358 256.515 46.4025H256.482Z" fill="#C64522"/>
<path fill-rule="evenodd" clip-rule="evenodd" d="M256.448 49.4762C289.807 96.8591 300.197 174.719 291.964 233.809C283.73 292.931 258.441 348.784 222.174 397.376C208.68 415.46 167.12 458.657 162.284 455.06C158.56 452.313 186.103 407.219 194.761 390.836C221.455 340.38 241.32 286.064 249.064 230.506C256.775 174.948 254.292 110.789 230.016 61.2483C219.724 40.2873 192.115 1.53725 195.317 -1.50389C200.512 -6.40897 240.569 26.9128 256.448 49.4762Z" fill="#C03E21"/>
<path fill-rule="evenodd" clip-rule="evenodd" d="M256.378 52.5502C287.81 100.228 297.056 176.06 288.986 233.776C280.916 291.525 256.574 346.266 221.712 394.107C208.414 412.321 168.292 454.341 164.142 451.267C160.875 448.847 187.732 404.473 196.521 387.665C222.464 338.189 241.774 285.051 249.354 230.702C256.934 176.354 255.398 113.308 232.298 63.9954C221.582 41.1051 194.561 3.63033 197.306 1.01429C201.814 -3.26947 240.205 28.0249 256.346 52.5502H256.378Z" fill="#B9381F"/>
<path fill-rule="evenodd" clip-rule="evenodd" d="M256.314 55.6568C285.948 103.596 293.92 177.401 286.014 233.744C278.107 290.152 254.746 343.748 221.256 390.837C208.186 409.214 169.469 450.057 166.006 447.507C163.196 445.446 189.367 401.791 198.319 384.525C223.51 336.063 242.264 284.07 249.681 230.931C257.131 177.793 256.608 115.826 234.652 66.8076C223.543 42.0206 197.078 5.75583 199.365 3.5976C203.22 -0.0648584 239.945 29.2021 256.314 55.6568Z" fill="#B2321D"/>
<path fill-rule="evenodd" clip-rule="evenodd" d="M256.248 58.7303C284.151 106.833 290.783 178.741 283.073 233.711C275.329 288.745 252.915 341.23 220.798 387.566C207.957 406.075 170.645 445.773 167.9 443.713C165.548 441.98 191.033 399.044 200.148 381.386C224.621 333.905 242.754 283.088 250.073 231.16C257.359 179.264 257.914 118.343 237.036 69.6196C225.568 42.8706 199.593 7.91377 201.423 6.14795C204.625 3.1068 239.748 30.2809 256.281 58.7303H256.248Z" fill="#AC2B1B"/>
<path fill-rule="evenodd" clip-rule="evenodd" d="M256.215 61.805C282.485 110.071 287.68 180.05 280.132 233.646C272.552 287.307 251.151 338.68 220.373 384.264C207.761 402.936 171.886 441.425 169.795 439.921C167.9 438.547 192.732 396.331 201.946 378.215C225.764 331.813 243.244 282.075 250.4 231.39C257.555 180.704 259.254 120.797 239.356 72.3999C227.561 43.7216 202.076 10.0074 203.449 8.69941C205.997 6.27958 239.585 31.3282 256.183 61.8377L256.215 61.805Z" fill="#A52519"/>
<path fill-rule="evenodd" clip-rule="evenodd" d="M256.151 64.8785C280.852 113.308 284.577 181.39 277.16 233.613C269.743 285.901 249.355 336.194 219.917 380.994C207.534 399.83 173.064 437.141 171.659 436.127C170.221 435.081 194.366 393.616 203.744 375.043C226.843 329.622 243.735 281.061 250.727 231.586C257.719 182.11 260.595 123.249 241.71 75.1792C229.653 44.5061 204.593 12.1327 205.508 11.2498C207.37 9.45123 239.553 32.3743 256.151 64.9112V64.8785Z" fill="#9E1D16"/>
<path fill-rule="evenodd" clip-rule="evenodd" d="M256.084 67.9525C279.314 116.513 281.438 182.698 274.184 233.548C266.931 284.462 247.621 333.709 219.424 377.691C207.303 396.723 174.205 432.824 173.486 432.334C172.539 431.647 195.965 390.87 205.506 371.871C227.854 327.463 244.158 280.048 251.052 231.782C257.913 183.549 261.997 125.669 244.027 77.9588C231.742 45.3238 207.074 14.2256 207.499 13.7678C208.708 12.5906 239.486 33.3227 256.051 67.9525H256.084Z" fill="#971614"/>
<path fill-rule="evenodd" clip-rule="evenodd" d="M271.245 233.515C264.155 283.056 245.793 331.191 219.001 374.421C207.108 393.617 175.415 428.541 175.415 428.541C174.893 428.214 197.666 388.156 207.337 368.699C228.934 325.273 244.682 279.034 251.413 231.978C258.143 184.955 263.469 128.121 246.414 80.7384C233.965 46.1086 209.591 16.3185 209.591 16.3185C210.114 15.7299 239.618 34.3364 256.052 71.0264C277.845 119.717 278.335 184.039 271.245 233.515Z" fill="#910D11"/>
</g>
<path fill-rule="evenodd" clip-rule="evenodd" d="M184.593 0.065918C185.443 0.065918 186.26 0.065918 187.109 0.065918C172.962 5.13449 156.299 67.2327 159.795 201.141C162.637 310.492 180.575 384.362 185.802 443.255H180.869C167.473 384.231 121.339 311.211 114.02 201.566C105.035 66.873 148.163 4.7748 184.593 0.131333V0.065918Z" fill="#D8E2E7"/>
<mask id="mask6_1288_93716" style="mask-type:luminance" maskUnits="userSpaceOnUse" x="112" y="0" width="76" height="444">
<path d="M184.593 0.065918C185.443 0.065918 186.26 0.065918 187.109 0.065918C172.962 5.13449 156.299 67.2327 159.795 201.141C162.637 310.492 180.575 384.362 185.802 443.255H180.869C167.473 384.231 121.339 311.211 114.02 201.566C105.035 66.873 148.163 4.7748 184.593 0.131333V0.065918Z" fill="white"/>
</mask>
<g mask="url(#mask6_1288_93716)">
<path fill-rule="evenodd" clip-rule="evenodd" d="M110.195 210.362C110.195 269.256 122.579 329.425 148.684 383.511C157.343 401.464 182.828 448.324 195.113 446.165C203.51 444.694 189.46 391.261 186.879 379.489C174.561 323.67 166.883 266.967 166.883 210.33C166.883 153.692 174.529 97.0226 186.879 41.2029C189.46 29.4307 203.346 -24.0346 195.113 -25.4734C182.599 -27.6971 157.343 19.2281 148.684 37.1807C122.579 91.2999 110.195 151.436 110.195 210.362Z" fill="#D8E2E7"/>
<path fill-rule="evenodd" clip-rule="evenodd" d="M113.167 210.526C113.167 268.242 125.06 327.201 150.153 380.405C158.518 398.226 183.512 444.334 194.686 442.372C202.528 440.966 188.74 388.482 186.061 376.35C173.972 321.609 166.555 266.018 166.522 210.526C166.522 155.033 173.906 99.4422 185.963 44.7016C188.642 32.5697 202.071 -20.0126 194.556 -21.3206C182.924 -23.4135 158.42 22.825 150.055 40.6467C125.028 93.8831 113.167 152.842 113.167 210.558V210.526Z" fill="#D4DEE4"/>
<path fill-rule="evenodd" clip-rule="evenodd" d="M116.104 210.689C116.104 267.228 127.54 324.977 151.555 377.298C159.625 394.989 184.097 440.377 194.226 438.546C201.512 437.238 187.952 385.669 185.208 373.178C173.38 319.549 166.159 265.037 166.127 210.689C166.127 156.341 173.25 101.796 185.012 48.1677C187.756 35.6434 200.728 -15.9906 193.964 -17.2332C183.248 -19.1626 159.429 26.3565 151.391 44.0475C127.409 96.4009 116.072 154.15 116.104 210.689Z" fill="#CFDBE2"/>
<path fill-rule="evenodd" clip-rule="evenodd" d="M119.083 210.886C119.115 266.248 130.028 322.787 153.03 374.225C160.838 391.785 184.788 436.454 193.806 434.786C200.536 433.544 187.206 382.923 184.396 370.072C172.83 317.555 165.805 264.122 165.772 210.886C165.74 157.65 172.666 104.217 184.134 51.7001C186.944 38.8161 199.491 -11.9677 193.414 -13.0468C183.579 -14.8453 160.512 29.987 152.768 47.5471C129.865 99.0177 119.05 155.557 119.083 210.919V210.886Z" fill="#CBD8DF"/>
<path fill-rule="evenodd" clip-rule="evenodd" d="M122.054 211.049C122.12 265.234 132.542 320.563 154.499 371.118C162.013 388.547 185.44 432.464 193.379 430.992C199.587 429.848 186.485 380.143 183.578 366.9C172.273 315.462 165.477 263.141 165.411 211.049C165.346 158.957 172.044 106.604 183.218 55.1659C186.093 41.9222 198.215 -7.97864 192.857 -8.95966C183.937 -10.5947 161.556 33.5183 154.106 50.9476C132.281 101.535 121.989 156.864 122.022 211.049H122.054Z" fill="#C7D4DC"/>
<path fill-rule="evenodd" clip-rule="evenodd" d="M125.001 211.213C125.067 264.22 134.999 318.34 155.942 368.012C163.163 385.31 186.067 428.508 192.961 427.2C198.613 426.12 185.74 377.364 182.767 363.761C171.724 313.435 165.124 262.226 165.058 211.246C164.993 160.266 171.429 109.024 182.31 58.6653C185.25 45.0292 196.947 -3.95617 192.307 -4.83909C184.27 -6.34331 162.64 37.083 155.485 54.3815C134.705 104.119 124.936 158.206 125.001 211.213Z" fill="#C3D1D9"/>
<path fill-rule="evenodd" clip-rule="evenodd" d="M127.974 211.409C128.072 263.239 137.514 316.116 157.412 364.938C164.339 382.138 186.752 424.551 192.536 423.406C197.633 422.393 184.988 374.585 181.95 360.621C171.135 311.407 164.763 261.277 164.698 211.409C164.6 161.574 170.808 111.411 181.427 62.1642C184.433 48.1684 195.705 0.0659673 191.784 -0.686144C184.661 -2.05956 163.751 40.6473 156.889 57.8477C137.188 106.702 127.941 159.612 128.006 211.442L127.974 211.409Z" fill="#BFCED6"/>
<path fill-rule="evenodd" clip-rule="evenodd" d="M130.94 211.573C131.038 262.226 140.023 313.893 158.843 361.832C165.475 378.901 187.366 420.562 192.104 419.613C196.645 418.698 184.23 371.805 181.126 357.45C170.572 309.315 164.43 260.297 164.332 211.573C164.234 162.849 170.18 113.798 180.505 65.6307C183.576 51.2752 194.456 4.05574 191.222 3.40173C185.014 2.15911 164.789 44.1792 158.255 61.2488C139.631 109.22 130.875 160.92 131.005 211.573H130.94Z" fill="#BBCAD3"/>
<path fill-rule="evenodd" clip-rule="evenodd" d="M133.88 211.735C134.01 261.211 142.473 311.668 160.279 358.724C166.618 375.663 188.019 416.571 191.645 415.819C195.632 414.969 183.477 368.992 180.243 354.309C169.951 307.286 164.004 259.347 163.906 211.768C163.775 164.189 169.493 116.217 179.524 69.1285C182.661 54.3806 193.116 8.07667 190.567 7.55346C185.242 6.47435 165.769 47.775 159.495 64.7139C141.917 111.803 133.716 162.292 133.847 211.768L133.88 211.735Z" fill="#B7C7D0"/>
<path fill-rule="evenodd" clip-rule="evenodd" d="M136.854 211.932C136.984 260.263 144.989 309.477 161.75 355.65C167.828 372.458 188.673 412.614 191.254 412.026C194.717 411.274 182.759 366.245 179.459 351.17C169.429 305.259 163.711 258.399 163.58 211.932C163.449 165.464 168.906 118.605 178.675 72.6276C181.877 57.52 191.908 12.0663 190.078 11.6739C185.667 10.6929 166.88 51.3396 160.934 68.1476C144.434 114.353 136.723 163.633 136.886 211.932H136.854Z" fill="#B3C4CD"/>
<path fill-rule="evenodd" clip-rule="evenodd" d="M139.83 212.095C139.993 259.249 147.475 307.254 163.224 352.511C169.007 369.188 189.329 408.56 190.832 408.2C193.74 407.513 182.01 363.4 178.645 347.999C168.876 303.166 163.354 257.418 163.191 212.095C163.027 166.772 168.255 120.992 177.73 76.0941C180.998 60.6267 190.603 16.056 189.493 15.7944C185.964 14.9442 167.928 54.9041 162.276 71.5814C146.854 116.937 139.666 164.974 139.83 212.095Z" fill="#AFC1CA"/>
<path fill-rule="evenodd" clip-rule="evenodd" d="M142.769 212.259C142.932 258.236 149.957 305.031 164.66 349.405C170.149 365.952 189.949 404.538 190.374 404.407C192.693 403.688 181.258 360.621 177.794 344.827C168.254 301.106 162.961 256.438 162.798 212.227C162.634 168.016 167.6 123.347 176.782 79.528C180.114 63.701 189.295 19.9805 188.903 19.8497C186.29 19.0649 168.94 58.4036 163.582 74.95C149.206 119.423 142.573 166.282 142.736 212.227L142.769 212.259Z" fill="#ABBDC7"/>
</g>
<path fill-rule="evenodd" clip-rule="evenodd" d="M193.384 0.0710449C192.534 0.0710449 191.685 0.0710449 190.868 0.0710449C205.015 5.13962 221.679 67.2378 218.183 201.146C215.34 310.497 197.403 384.367 192.175 443.261H197.109C210.505 384.236 256.639 311.216 263.958 201.571C272.943 66.8781 229.814 4.77993 193.384 0.13646V0.0710449Z" fill="#D8E2E7"/>
<mask id="mask7_1288_93716" style="mask-type:luminance" maskUnits="userSpaceOnUse" x="190" y="0" width="76" height="444">
<path d="M193.384 0.0710449C192.534 0.0710449 191.685 0.0710449 190.868 0.0710449C205.015 5.13962 221.679 67.2378 218.183 201.146C215.34 310.497 197.403 384.367 192.175 443.261H197.109C210.505 384.236 256.639 311.216 263.958 201.571C272.943 66.8781 229.814 4.77993 193.384 0.13646V0.0710449Z" fill="white"/>
</mask>
<g mask="url(#mask7_1288_93716)">
<path fill-rule="evenodd" clip-rule="evenodd" d="M267.779 210.363C267.779 269.257 255.396 329.426 229.29 383.512C220.632 401.465 195.147 448.324 182.862 446.166C174.498 444.695 188.482 391.262 191.096 379.49C203.413 323.67 211.091 266.968 211.091 210.33C211.091 153.693 203.446 97.0233 191.096 41.2036C188.482 29.4314 174.661 -24.0339 182.862 -25.4727C195.376 -27.6963 220.632 19.2288 229.29 37.1814C255.429 91.3007 267.779 151.437 267.779 210.363Z" fill="#D8E2E7"/>
<path fill-rule="evenodd" clip-rule="evenodd" d="M264.807 210.526C264.807 268.243 252.914 327.202 227.821 380.405C219.456 398.227 194.462 444.335 183.287 442.373C175.446 440.967 189.234 388.482 191.913 376.35C204.002 321.61 211.419 266.019 211.452 210.526C211.452 155.034 204.068 99.4429 192.011 44.7023C189.332 32.5705 175.936 -20.0119 183.418 -21.3199C195.05 -23.4127 219.555 22.8257 227.919 40.6475C252.979 93.8838 264.807 152.843 264.807 210.559V210.526Z" fill="#D4DEE4"/>
<path fill-rule="evenodd" clip-rule="evenodd" d="M261.863 210.69C261.863 267.229 250.428 324.978 226.38 377.299C218.31 394.99 193.838 440.378 183.742 438.547C176.456 437.239 190.015 385.67 192.76 373.178C204.587 319.55 211.808 265.038 211.841 210.69C211.841 156.342 204.718 101.797 192.956 48.1684C190.211 35.6442 177.24 -15.9899 184.003 -17.2325C194.72 -19.1618 218.539 26.3572 226.576 44.0482C250.558 96.4016 261.896 154.151 261.863 210.69Z" fill="#D0DBE2"/>
<path fill-rule="evenodd" clip-rule="evenodd" d="M258.891 210.887C258.858 266.249 247.945 322.788 224.943 374.226C217.167 391.786 193.185 436.455 184.167 434.787C177.437 433.544 190.767 382.924 193.577 370.073C205.143 317.556 212.168 264.123 212.201 210.887C212.234 157.65 205.307 104.218 193.839 51.7009C191.029 38.8169 178.482 -11.9669 184.559 -13.0461C194.394 -14.8446 217.461 29.9877 225.205 47.5479C248.108 99.0184 258.923 155.558 258.891 210.919V210.887Z" fill="#CBD8DF"/>
<path fill-rule="evenodd" clip-rule="evenodd" d="M255.921 211.05C255.855 265.234 245.433 320.564 223.476 371.119C215.994 388.548 192.535 432.465 184.595 430.993C178.42 429.849 191.489 380.144 194.397 366.9C205.702 315.462 212.498 263.142 212.563 211.05C212.629 158.958 205.931 106.605 194.757 55.1667C191.881 41.923 179.76 -7.97791 185.118 -8.95892C194.038 -10.5939 216.419 33.519 223.868 50.9483C245.727 101.536 255.986 156.865 255.953 211.05H255.921Z" fill="#C7D5DC"/>
<path fill-rule="evenodd" clip-rule="evenodd" d="M252.98 211.214C252.915 264.221 242.982 318.34 222.039 368.012C214.818 385.311 191.914 428.508 185.02 427.2C179.401 426.121 192.241 377.365 195.214 363.761C206.258 313.435 212.858 262.226 212.923 211.246C212.988 160.266 206.552 109.025 195.672 58.666C192.731 45.0299 181.034 -3.95544 185.674 -4.83836C193.711 -6.34258 215.341 37.0837 222.496 54.3822C243.276 104.12 253.045 158.206 252.98 211.214Z" fill="#C3D1D9"/>
<path fill-rule="evenodd" clip-rule="evenodd" d="M250.008 211.41C249.91 263.24 240.369 316.084 220.569 364.939C213.61 382.106 191.229 424.552 185.446 423.407C180.349 422.426 192.993 374.585 196.032 360.622C206.847 311.408 213.218 261.278 213.283 211.41C213.381 161.574 207.173 111.412 196.555 62.1649C193.549 48.1691 182.277 0.0666997 186.197 -0.685411C193.32 -2.05883 214.231 40.648 221.092 57.8485C240.794 106.703 250.04 159.612 249.942 211.443L250.008 211.41Z" fill="#BFCED6"/>
<path fill-rule="evenodd" clip-rule="evenodd" d="M247.035 211.574C246.937 262.227 237.952 313.893 219.132 361.832C212.5 378.902 190.609 420.562 185.871 419.614C181.33 418.698 193.713 371.806 196.849 357.45C207.403 309.315 213.545 260.297 213.643 211.574C213.741 162.85 207.795 113.799 197.47 65.6314C194.399 51.2759 183.519 4.05647 186.753 3.40246C192.961 2.15984 213.186 44.1799 219.721 61.2496C238.377 109.221 247.1 160.921 247.002 211.574H247.035Z" fill="#BBCBD3"/>
<path fill-rule="evenodd" clip-rule="evenodd" d="M244.09 211.736C243.96 261.212 235.497 311.669 217.69 358.725C211.352 375.664 189.951 416.572 186.324 415.82C182.338 414.97 194.493 368.993 197.695 354.311C207.987 307.287 213.933 259.348 214.031 211.769C214.162 164.19 208.444 116.218 198.413 69.1297C195.277 54.3818 184.821 8.07792 187.37 7.55471C192.695 6.44289 212.201 47.7763 218.442 64.7151C236.02 111.804 244.221 162.293 244.09 211.769V211.736Z" fill="#B7C8D1"/>
<path fill-rule="evenodd" clip-rule="evenodd" d="M241.117 211.932C240.986 260.264 232.981 309.478 216.22 355.651C210.175 372.459 189.297 412.615 186.716 412.027C183.285 411.274 195.211 366.246 198.511 351.171C208.542 305.26 214.292 258.4 214.423 211.932C214.553 165.465 209.097 118.605 199.328 72.6284C196.126 57.5208 186.095 12.0671 187.925 11.6747C192.336 10.6937 211.123 51.3403 217.069 68.1484C233.569 114.354 241.28 163.634 241.117 211.932Z" fill="#B4C4CE"/>
<path fill-rule="evenodd" clip-rule="evenodd" d="M238.148 212.096C237.984 259.25 230.502 307.254 214.754 352.512C208.971 369.189 188.648 408.561 187.145 408.201C184.237 407.514 195.967 363.401 199.332 347.999C209.101 303.167 214.623 257.419 214.786 212.096C214.95 166.773 209.722 120.993 200.247 76.0948C196.98 60.6275 187.374 16.0567 188.485 15.7951C192.013 14.9449 210.049 54.9049 215.701 71.5821C231.123 116.938 238.311 164.975 238.148 212.096Z" fill="#B0C1CB"/>
<path fill-rule="evenodd" clip-rule="evenodd" d="M235.206 212.26C235.043 258.237 228.018 305.031 213.315 349.406C207.826 365.952 188.026 404.539 187.601 404.408C185.282 403.689 196.717 360.622 200.181 344.828C209.721 301.107 215.014 256.438 215.177 212.227C215.341 168.016 210.375 123.347 201.161 79.5288C197.828 63.7017 188.647 19.9812 189.039 19.8504C191.62 19.0656 209.002 58.4043 214.361 74.9507C228.737 119.423 235.369 166.283 235.206 212.227V212.26Z" fill="#ACBEC8"/>
</g>
<path fill-rule="evenodd" clip-rule="evenodd" d="M190.865 0.0327148C205.013 5.10129 221.676 67.1995 218.18 201.108C215.337 310.458 197.4 384.329 192.172 443.222H185.801C180.573 384.329 162.636 310.458 159.793 201.108C156.297 67.1995 172.96 5.13399 187.108 0.0327148C187.761 0.0327148 188.382 0.0327148 189.003 0.0327148C189.624 0.0327148 190.244 0.0327148 190.898 0.0327148H190.865Z" fill="#D8E2E7"/>
<mask id="mask8_1288_93716" style="mask-type:luminance" maskUnits="userSpaceOnUse" x="159" y="0" width="60" height="444">
<path d="M190.863 0.0327148C205.011 5.10129 221.674 67.1995 218.178 201.108C215.335 310.458 197.398 384.329 192.17 443.222H185.799C180.571 384.329 162.634 310.458 159.791 201.108C156.295 67.1995 172.958 5.13399 187.106 0.0327148C187.759 0.0327148 188.38 0.0327148 189.001 0.0327148C189.622 0.0327148 190.242 0.0327148 190.896 0.0327148H190.863Z" fill="white"/>
</mask>
<g mask="url(#mask8_1288_93716)">
<path fill-rule="evenodd" clip-rule="evenodd" d="M160.181 220.793C160.181 351.039 172.858 456.596 188.508 456.596C204.159 456.596 216.836 351.006 216.836 220.793C216.836 90.5799 204.159 -15.01 188.508 -15.01C172.858 -15.01 160.181 90.5471 160.181 220.793Z" fill="#D8E2E7"/>
<path fill-rule="evenodd" clip-rule="evenodd" d="M161.78 220.565C161.78 346.429 173.575 448.487 188.115 448.487C202.654 448.487 214.449 346.429 214.449 220.565C214.449 94.7005 202.654 -7.35767 188.115 -7.35767C173.575 -7.35767 161.78 94.6678 161.78 220.565Z" fill="#D4DFE5"/>
<path fill-rule="evenodd" clip-rule="evenodd" d="M163.379 220.367C163.379 341.882 174.259 440.376 187.687 440.376C201.116 440.376 211.996 341.882 211.996 220.367C211.996 98.8525 201.116 0.325928 187.687 0.325928C174.259 0.325928 163.379 98.8198 163.379 220.367Z" fill="#D0DBE2"/>
<path fill-rule="evenodd" clip-rule="evenodd" d="M164.948 220.139C164.948 337.305 174.913 432.267 187.231 432.267C199.548 432.267 209.514 337.305 209.514 220.139C209.514 102.973 199.548 8.01123 187.231 8.01123C174.913 8.01123 164.948 102.973 164.948 220.139Z" fill="#CCD8DF"/>
<path fill-rule="evenodd" clip-rule="evenodd" d="M166.554 219.943C166.554 332.727 175.637 424.19 186.811 424.19C197.985 424.19 207.068 332.759 207.068 219.943C207.068 107.126 197.985 15.6956 186.811 15.6956C175.637 15.6956 166.554 107.126 166.554 219.943Z" fill="#C8D5DC"/>
<path fill-rule="evenodd" clip-rule="evenodd" d="M168.123 219.714C168.123 328.149 176.291 416.047 186.354 416.047C196.418 416.047 204.586 328.149 204.586 219.714C204.586 111.279 196.418 23.3801 186.354 23.3801C176.291 23.3801 168.123 111.279 168.123 219.714Z" fill="#C4D2DA"/>
<path fill-rule="evenodd" clip-rule="evenodd" d="M169.721 219.518C169.721 323.604 176.975 407.971 185.927 407.971C194.879 407.971 202.133 323.604 202.133 219.518C202.133 115.432 194.879 31.0652 185.927 31.0652C176.975 31.0652 169.721 115.432 169.721 219.518Z" fill="#C0CFD7"/>
<path fill-rule="evenodd" clip-rule="evenodd" d="M171.321 219.289C171.321 318.993 177.692 399.861 185.533 399.861C193.375 399.861 199.746 319.025 199.746 219.289C199.746 119.552 193.375 38.7168 185.533 38.7168C177.692 38.7168 171.321 119.552 171.321 219.289Z" fill="#BCCCD4"/>
<path fill-rule="evenodd" clip-rule="evenodd" d="M172.89 219.093C172.89 314.447 178.346 391.751 185.077 391.751C191.807 391.751 197.264 314.447 197.264 219.093C197.264 123.738 191.807 46.4341 185.077 46.4341C178.346 46.4341 172.89 123.738 172.89 219.093Z" fill="#B9C8D1"/>
<path fill-rule="evenodd" clip-rule="evenodd" d="M174.488 218.863C174.488 309.869 179.03 383.641 184.649 383.641C190.269 383.641 194.811 309.869 194.811 218.863C194.811 127.858 190.269 54.0857 184.649 54.0857C179.03 54.0857 174.488 127.858 174.488 218.863Z" fill="#B5C5CF"/>
<path fill-rule="evenodd" clip-rule="evenodd" d="M176.057 218.668C176.057 305.291 179.716 375.532 184.193 375.532C188.669 375.532 192.328 305.291 192.328 218.668C192.328 132.044 188.669 61.7708 184.193 61.7708C179.716 61.7708 176.057 132.011 176.057 218.668Z" fill="#B1C2CC"/>
<path fill-rule="evenodd" clip-rule="evenodd" d="M177.661 218.439C177.661 300.713 180.406 367.422 183.771 367.422C187.136 367.422 189.881 300.713 189.881 218.439C189.881 136.164 187.136 69.4553 183.771 69.4553C180.406 69.4553 177.661 136.164 177.661 218.439Z" fill="#ADBFC9"/>
</g>
<g style="mix-blend-mode:color">
<path d="M217.133 109.481C217.231 110.953 217.297 112.392 217.395 113.896C217.329 112.392 217.231 110.953 217.133 109.481Z" fill="#910D11"/>
</g>
<g style="mix-blend-mode:multiply">
<path fill-rule="evenodd" clip-rule="evenodd" d="M170.972 438.612C177.932 442.274 180.415 442.994 186.035 442.994C191.654 442.994 195.183 441.751 202.142 438.089C222.269 416.473 489.24 165.432 191.001 165.432C-107.238 165.432 170.548 415.198 170.972 438.612Z" fill="white"/>
<path fill-rule="evenodd" clip-rule="evenodd" d="M189.952 168.964C-102.276 168.964 170.38 414.872 171.034 438.383C177.895 442.013 180.346 442.831 185.867 442.831C191.389 442.831 194.918 441.588 201.746 437.991C221.514 416.801 482.179 168.997 189.952 168.997V168.964Z" fill="#F9F9FB"/>
<path fill-rule="evenodd" clip-rule="evenodd" d="M188.914 172.495C-97.3014 172.495 170.225 414.544 171.14 438.153C177.871 441.751 180.321 442.666 185.745 442.666C191.169 442.666 194.697 441.456 201.395 437.859C220.803 417.094 475.163 172.528 188.914 172.528V172.495Z" fill="#F4F4F7"/>
<path fill-rule="evenodd" clip-rule="evenodd" d="M187.866 176.026C-92.3377 176.026 170.027 414.184 171.203 437.924C177.836 441.489 180.253 442.502 185.579 442.502C190.905 442.502 194.433 441.293 200.968 437.728C220.016 417.389 468.07 176.026 187.833 176.026H187.866Z" fill="#F0F0F4"/>
<path fill-rule="evenodd" clip-rule="evenodd" d="M186.819 179.592C-87.4053 179.592 169.862 413.89 171.267 437.729C177.802 441.261 180.187 442.373 185.414 442.373C190.642 442.373 194.138 441.163 200.575 437.631C219.264 417.716 461.011 179.592 186.787 179.592H186.819Z" fill="#ECECF1"/>
<path fill-rule="evenodd" clip-rule="evenodd" d="M185.778 183.122C-82.4344 183.122 169.703 413.563 171.37 437.499C177.773 440.998 180.158 442.208 185.321 442.208C190.483 442.208 193.946 440.998 200.252 437.499C218.582 418.01 454.024 183.122 185.811 183.122H185.778Z" fill="#E8E9EE"/>
<path fill-rule="evenodd" clip-rule="evenodd" d="M184.727 186.655C-77.4744 186.655 169.534 413.236 171.429 437.271C177.735 440.738 180.087 442.046 185.151 442.046C190.216 442.046 193.679 440.836 199.854 437.369C217.857 418.305 446.96 186.655 184.759 186.655H184.727Z" fill="#E5E5EC"/>
<path fill-rule="evenodd" clip-rule="evenodd" d="M183.682 190.186C-72.5075 190.186 169.371 412.876 171.527 437.042C177.735 440.476 180.055 441.882 185.021 441.882C189.988 441.882 193.451 440.672 199.463 437.271C217.106 418.632 439.903 190.219 183.714 190.219L183.682 190.186Z" fill="#E1E2E9"/>
<path fill-rule="evenodd" clip-rule="evenodd" d="M182.638 193.718C-67.5721 193.718 169.177 412.549 171.594 436.813C177.672 440.214 179.991 441.718 184.86 441.718C189.728 441.718 193.191 440.508 199.072 437.14C216.356 418.893 432.848 193.718 182.638 193.718Z" fill="#DEDFE7"/>
<path fill-rule="evenodd" clip-rule="evenodd" d="M181.592 197.249C-62.6065 197.249 169.012 412.222 171.659 436.584C177.638 439.952 179.925 441.555 184.695 441.555C189.466 441.555 192.929 440.345 198.679 437.009C215.604 419.187 425.79 197.249 181.592 197.249Z" fill="#DBDCE5"/>
<path fill-rule="evenodd" clip-rule="evenodd" d="M180.55 200.781C-57.6365 200.781 168.853 411.863 171.761 436.356C177.642 439.691 179.896 441.392 184.569 441.392C189.241 441.392 192.671 440.214 198.324 436.879C214.889 419.482 418.769 200.781 180.582 200.781H180.55Z" fill="#D7D9E3"/>
<path fill-rule="evenodd" clip-rule="evenodd" d="M179.499 204.312C-52.6757 204.312 168.684 411.535 171.82 436.126C177.571 439.429 179.825 441.227 184.4 441.227C188.974 441.227 192.405 440.05 197.894 436.747C214.132 419.776 411.673 204.312 179.499 204.312Z" fill="#D4D6E1"/>
<path fill-rule="evenodd" clip-rule="evenodd" d="M178.449 207.844C-47.7464 207.844 168.516 411.208 171.914 435.93C177.567 439.2 179.789 441.096 184.265 441.096C188.741 441.096 192.172 439.919 197.53 436.649C213.409 420.103 404.644 207.877 178.482 207.877L178.449 207.844Z" fill="#D1D3DF"/>
<path fill-rule="evenodd" clip-rule="evenodd" d="M177.41 211.376C-42.7734 211.376 168.327 410.882 171.986 435.701C177.541 438.939 179.73 440.934 184.108 440.934C188.486 440.934 191.917 439.756 197.144 436.519C212.664 420.398 397.593 211.376 177.443 211.376H177.41Z" fill="#CED1DD"/>
<path fill-rule="evenodd" clip-rule="evenodd" d="M176.361 214.907C-37.8105 214.907 168.16 410.554 172.048 435.472C177.472 438.676 179.661 440.769 183.941 440.769C188.221 440.769 191.652 439.592 196.749 436.387C211.909 420.691 390.533 214.907 176.361 214.907Z" fill="#CBCEDB"/>
<path fill-rule="evenodd" clip-rule="evenodd" d="M175.32 218.439C-32.8399 218.439 168.001 410.195 172.151 435.243C177.476 438.415 179.633 440.606 183.815 440.606C187.997 440.606 191.395 439.429 196.361 436.29C211.162 421.019 383.512 218.472 175.32 218.472V218.439Z" fill="#C8CBD9"/>
<path fill-rule="evenodd" clip-rule="evenodd" d="M174.277 221.971C-27.9031 221.971 167.841 409.868 172.219 435.014C177.447 438.154 179.571 440.443 183.655 440.443C187.739 440.443 191.137 439.265 195.972 436.159C210.447 421.313 376.458 222.003 174.277 222.003V221.971Z" fill="#C5C8D7"/>
<path fill-rule="evenodd" clip-rule="evenodd" d="M173.227 225.502C-22.9421 225.502 167.672 409.54 172.279 434.785C177.376 437.892 179.5 440.279 183.486 440.279C187.472 440.279 190.87 439.134 195.575 436.028C209.69 421.607 369.395 225.502 173.227 225.502Z" fill="#C2C6D5"/>
<path fill-rule="evenodd" clip-rule="evenodd" d="M172.186 229.034C-17.9715 229.034 167.481 409.181 172.382 434.556C177.381 437.63 179.472 440.116 183.36 440.116C187.248 440.116 190.646 438.971 195.187 435.897C208.943 421.901 362.342 229.034 172.186 229.034Z" fill="#BFC3D3"/>
<path fill-rule="evenodd" clip-rule="evenodd" d="M171.134 232.566C-13.0107 232.566 167.312 408.854 172.441 434.328C177.342 437.369 179.368 439.953 183.191 439.953C187.014 439.953 190.379 438.808 194.79 435.767C208.186 422.196 355.279 232.566 171.102 232.566H171.134Z" fill="#BCC0D1"/>
<path fill-rule="evenodd" clip-rule="evenodd" d="M170.087 236.098C-8.07913 236.098 167.146 408.527 172.537 434.099C177.308 437.108 179.366 439.789 183.058 439.789C186.75 439.789 190.115 438.644 194.428 435.636C207.465 422.49 348.253 236.098 170.087 236.098Z" fill="#BABECF"/>
<path fill-rule="evenodd" clip-rule="evenodd" d="M169.043 239.629C-3.11087 239.629 166.985 408.2 172.605 433.87C177.277 436.846 179.303 439.625 182.897 439.625C186.491 439.625 189.856 438.481 194.038 435.505C206.715 422.752 341.197 239.629 169.043 239.629Z" fill="#B7BBCE"/>
<path fill-rule="evenodd" clip-rule="evenodd" d="M167.999 243.161C1.85672 243.161 166.823 407.84 172.704 433.641C177.278 436.584 179.239 439.462 182.767 439.462C186.296 439.462 189.628 438.317 193.68 435.407C206.03 423.079 334.174 243.161 168.032 243.161H167.999Z" fill="#B4B9CC"/>
<path fill-rule="evenodd" clip-rule="evenodd" d="M166.958 246.693C6.82724 246.693 166.631 407.514 172.774 433.413C177.217 436.323 179.21 439.299 182.608 439.299C186.006 439.299 189.372 438.154 193.26 435.277C205.251 423.374 327.088 246.693 166.958 246.693Z" fill="#B1B6CA"/>
<path fill-rule="evenodd" clip-rule="evenodd" d="M165.909 250.225C11.7581 250.225 166.465 407.187 172.836 433.216C177.182 436.094 179.109 439.168 182.442 439.168C185.775 439.168 189.107 438.056 192.865 435.178C204.496 423.701 320.028 250.257 165.909 250.257V250.225Z" fill="#AFB4C8"/>
<path fill-rule="evenodd" clip-rule="evenodd" d="M164.866 253.756C16.7267 253.756 166.304 406.86 172.936 432.955C177.184 435.8 179.079 438.972 182.313 438.972C185.548 438.972 188.848 437.86 192.507 435.015C203.78 423.962 313.006 253.756 164.866 253.756Z" fill="#ACB1C6"/>
<path fill-rule="evenodd" clip-rule="evenodd" d="M163.819 257.288C21.6909 257.288 166.138 406.5 173 432.758C177.116 435.571 179.011 438.841 182.148 438.841C185.285 438.841 188.585 437.729 192.113 434.917C203.026 424.289 305.946 257.32 163.819 257.32V257.288Z" fill="#A9AFC5"/>
<path fill-rule="evenodd" clip-rule="evenodd" d="M162.767 260.819C26.6516 260.819 165.969 406.173 173.092 432.529C177.111 435.309 178.973 438.677 182.012 438.677C185.05 438.677 188.35 437.565 191.716 434.786C202.302 424.583 298.883 260.819 162.767 260.819Z" fill="#A7ADC3"/>
<path fill-rule="evenodd" clip-rule="evenodd" d="M161.724 264.351C31.5873 264.351 165.775 405.846 173.159 432.3C177.08 435.047 178.91 438.513 181.85 438.513C184.791 438.513 188.091 437.401 191.326 434.655C201.552 424.877 291.828 264.351 161.724 264.351Z" fill="#A4AAC1"/>
<path fill-rule="evenodd" clip-rule="evenodd" d="M160.678 267.915C36.5535 267.915 165.612 405.551 173.225 432.104C177.015 434.818 178.877 438.383 181.687 438.383C184.497 438.383 187.83 437.271 190.933 434.589C200.801 425.237 284.77 267.948 160.678 267.948V267.915Z" fill="#A1A8BF"/>
<path fill-rule="evenodd" clip-rule="evenodd" d="M159.632 271.447C41.5192 271.447 165.448 405.192 173.322 431.875C177.014 434.557 178.811 438.219 181.556 438.219C184.3 438.219 187.6 437.107 190.574 434.459C200.081 425.531 277.778 271.48 159.632 271.48V271.447Z" fill="#9FA6BE"/>
<path fill-rule="evenodd" clip-rule="evenodd" d="M173.39 431.646C176.984 434.295 178.749 438.056 181.395 438.056C184.042 438.056 187.309 436.944 190.152 434.328C199.3 425.826 270.691 275.011 158.557 275.011C46.423 275.011 165.255 404.897 173.358 431.679L173.39 431.646Z" fill="#9CA3BC"/>
</g>
<g style="mix-blend-mode:color">
<path fill-rule="evenodd" clip-rule="evenodd" d="M197.989 0.195801C274.738 4.70847 365.733 66.8721 346.782 202.317C331.361 312.649 233.897 383.871 205.929 443.189H208.869C241.706 383.707 356.813 313.368 375.012 202.71C397.491 66.2181 288.788 4.05446 197.989 0.195801Z" fill="#034EA2"/>
<path fill-rule="evenodd" clip-rule="evenodd" d="M197.988 0.196249C197.302 0.196249 196.649 0.16356 195.962 0.130859C253.794 4.74163 322.244 66.9053 307.998 201.893C296.367 311.897 223.016 384.002 201.844 443.19H205.96C233.896 383.871 331.36 312.617 346.814 202.318C365.764 66.9052 274.77 4.70891 198.021 0.196249H197.988Z" fill="#034EA2"/>
<path fill-rule="evenodd" clip-rule="evenodd" d="M263.958 201.5C256.639 311.177 210.505 384.165 197.109 443.189H201.814C222.986 384.001 296.337 311.897 307.969 201.892C322.247 66.872 253.764 4.74112 195.933 0.130356C195.083 0.130356 194.234 0.0649414 193.384 0.0649414C229.815 4.70841 272.943 66.8066 263.958 201.5Z" fill="#034EA2"/>
</g>
</svg>
