<svg width="74" height="74" viewBox="0 0 74 74" fill="none" xmlns="http://www.w3.org/2000/svg">
<rect opacity="0.1" width="74" height="74" rx="36" fill="#027FFF"/>
<path d="M42.6475 27.4H31.3533C30.3049 27.4 29.2995 27.8165 28.5582 28.5578C27.8169 29.2991 27.4004 30.3045 27.4004 31.3529V42.6471C27.4004 43.6954 27.8169 44.7009 28.5582 45.4422C29.2995 46.1835 30.3049 46.6 31.3533 46.6H42.6475C43.6958 46.6 44.7013 46.1835 45.4426 45.4422C46.1839 44.7009 46.6004 43.6954 46.6004 42.6471V31.3529C46.6004 30.3045 46.1839 29.2991 45.4426 28.5578C44.7013 27.8165 43.6958 27.4 42.6475 27.4ZM35.3063 29.6588H38.6945V33.0471H35.3063V29.6588ZM33.0474 44.3412H31.3533C30.904 44.3412 30.4731 44.1627 30.1554 43.845C29.8377 43.5273 29.6592 43.0964 29.6592 42.6471V40.9529H33.0474V44.3412ZM38.6945 44.3412H35.3063V40.9529H38.6945V44.3412ZM44.3416 42.6471C44.3416 43.0964 44.1631 43.5273 43.8454 43.845C43.5277 44.1627 43.0968 44.3412 42.6475 44.3412H40.9533V40.9529H44.3416V42.6471ZM44.3416 38.6941H29.6592V31.3529C29.6592 30.9036 29.8377 30.4727 30.1554 30.155C30.4731 29.8373 30.904 29.6588 31.3533 29.6588H33.0474V34.1765C33.0474 34.476 33.1664 34.7633 33.3782 34.9751C33.5901 35.1869 33.8773 35.3059 34.1769 35.3059H44.3416V38.6941ZM44.3416 33.0471H40.9533V29.6588H42.6475C43.0968 29.6588 43.5277 29.8373 43.8454 30.155C44.1631 30.4727 44.3416 30.9036 44.3416 31.3529V33.0471Z" fill="#027FFF"/>
</svg>
